<svg width="24" height="33" viewBox="0 0 24 33" fill="none" xmlns="http://www.w3.org/2000/svg" xmlns:xlink= "http://www.w3.org/1999/xlink">
  <circle opacity="0.1" cx="12" cy="21" r="12" fill="white"></circle>
  <path d="M13 1C13 0.447715 12.5523 0 12 0C11.4477 0 11 0.447715 11 1H13ZM11.2929 25.7071C11.6834 26.0976 12.3166 26.0976 12.7071 25.7071L19.0711 19.3431C19.4616 18.9526 19.4616 18.3195 19.0711 17.9289C18.6805 17.5384 18.0474 17.5384 17.6569 17.9289L12 23.5858L6.34315 17.9289C5.95262 17.5384 5.31946 17.5384 4.92893 17.9289C4.53841 18.3195 4.53841 18.9526 4.92893 19.3431L11.2929 25.7071ZM11 1V25H13V1H11Z" fill="#C9D4DF"></path>
</svg>
