<svg width="90" height="90" viewBox="0 0 90 90" fill="none" xmlns="http://www.w3.org/2000/svg" xmlns:xlink= "http://www.w3.org/1999/xlink">
<circle cx="45" cy="45" r="45" fill="#E2F3FF"></circle>
<path d="M59.1084 24.3047V59.0656C59.1084 60.1125 58.2598 60.9611 57.2129 60.9611H51.6318C51.6318 57.298 48.663 54.3283 44.9999 54.3283C41.3368 54.3283 38.3671 57.298 38.3671 60.9611H32.786C31.7401 60.9611 30.8915 60.1125 30.8915 59.0656V24.3047C30.8915 23.2588 31.7401 22.4102 32.786 22.4102H57.2129C58.2598 22.4102 59.1084 23.2588 59.1084 24.3047Z" fill="white"></path>
<path d="M68.9826 32.8154L62.0714 64.4962C61.8634 65.4503 60.921 66.0548 59.9679 65.8468L50.9552 63.881C51.3888 63.0001 51.632 62.0089 51.632 60.9611H57.213C58.2599 60.9611 59.1085 60.1124 59.1085 59.0655V28.8516L67.632 30.7109C68.5861 30.919 69.1906 31.8613 68.9826 32.8154Z" fill="#1483F8"></path>
<path d="M38.3692 61.1349C38.3682 61.0773 38.3672 61.0196 38.3672 60.9611H32.7871C31.7402 60.9611 30.8916 60.1124 30.8916 59.0655V28.8516L22.3681 30.7109C21.414 30.919 20.8095 31.8613 21.0175 32.8154L27.9287 64.4962C28.1367 65.4503 29.0791 66.0548 30.0322 65.8468L39.044 63.881C38.6338 63.049 38.3945 62.1193 38.3692 61.1349Z" fill="#1483F8"></path>
<path d="M44.9996 67.5967C48.6626 67.5967 51.632 64.6273 51.632 60.9644C51.632 57.3014 48.6626 54.332 44.9996 54.332C41.3367 54.332 38.3673 57.3014 38.3673 60.9644C38.3673 64.6273 41.3367 67.5967 44.9996 67.5967Z" fill="#1483F8"></path>
<path d="M47.0062 58.9343L44.1892 61.7512L43.2167 60.7786C42.8352 60.3974 42.217 60.3974 41.8356 60.7786C41.4543 61.1599 41.4542 61.7783 41.8356 62.1597L43.4988 63.8229C43.8748 64.1988 44.5039 64.1989 44.8798 63.8229L48.3874 60.3155C48.7687 59.9341 48.7688 59.3158 48.3874 58.9343C48.0059 58.5532 47.3876 58.5531 47.0062 58.9343Z" fill="white"></path>
<path d="M53.0046 28.2656H47.5033C46.9639 28.2656 46.5267 28.7029 46.5267 29.2422C46.5267 29.7814 46.9639 30.2188 47.5033 30.2188H53.0046C53.5439 30.2188 53.9811 29.7814 53.9811 29.2422C53.9811 28.7029 53.5439 28.2656 53.0046 28.2656Z" fill="#1483F8"></path>
<path d="M47.7159 48.1328H36.4911C35.9517 48.1328 35.5145 48.5701 35.5145 49.1094C35.5145 49.6486 35.9517 50.0859 36.4911 50.0859H47.7159C48.2553 50.0859 48.6925 49.6486 48.6925 49.1094C48.6925 48.5701 48.2553 48.1328 47.7159 48.1328Z" fill="#1483F8"></path>
<path d="M53.0045 34.8867H36.491C35.9516 34.8867 35.5144 35.324 35.5144 35.8633C35.5144 36.4025 35.9516 36.8398 36.491 36.8398H53.0045C53.5439 36.8398 53.9811 36.4025 53.9811 35.8633C53.9811 35.324 53.5439 34.8867 53.0045 34.8867Z" fill="#1483F8"></path>
<path d="M53.0045 41.5117H36.491C35.9516 41.5117 35.5144 41.949 35.5144 42.4883C35.5144 43.0275 35.9516 43.4648 36.491 43.4648H53.0045C53.5439 43.4648 53.9811 43.0275 53.9811 42.4883C53.9811 41.949 53.5439 41.5117 53.0045 41.5117Z" fill="#1483F8"></path>
</svg>
