<svg class="mb-4" width="70" height="70" viewBox="0 0 70 70" fill="none" xmlns="http://www.w3.org/2000/svg" xmlns:xlink= "http://www.w3.org/1999/xlink">
<circle cx="35" cy="35" r="35" fill="#E9EEF3"></circle>
<g clip-path="url(#clip0)">
<path d="M21.998 40.1133L18.0376 44.0737C17.971 44.1372 17.9959 44.252 18.0887 44.2795L22.8585 45.7285C23.5352 45.9343 24.0625 46.4616 24.2683 47.1382L25.7172 51.908C25.7447 52.0009 25.8596 52.0258 25.9231 51.9592L31.2221 46.6601C27.3015 45.6862 24.0646 43.2419 21.998 40.1133Z" fill="#1483F8"></path>
<path d="M51.9624 44.0737L48.002 40.1133C45.9501 43.2195 42.7233 45.68 38.7777 46.6601L44.0768 51.9592C44.1403 52.0258 44.2552 52.0009 44.2827 51.9081L45.7316 47.1383C45.9374 46.4616 46.4647 45.9343 47.1414 45.7285L51.9112 44.2796C52.0043 44.2519 52.0289 44.137 51.9624 44.0737Z" fill="#1483F8"></path>
<path d="M48.5645 31.5645C48.5645 24.0853 42.4798 18 35 18C27.5202 18 21.4355 24.0853 21.4355 31.5645C21.4355 38.327 26.4146 43.9633 32.9156 44.9696C41.1504 46.2505 48.5645 39.8409 48.5645 31.5645ZM24.4264 34.8701C22.1894 27.7181 27.5745 20.4882 35 20.4882C43.295 20.4882 48.7777 29.4031 44.7342 36.8483C40.0663 45.4114 27.3644 44.2151 24.4264 34.8701Z" fill="#1483F8"></path>
<path d="M35 22.4805C29.9911 22.4805 25.9152 26.5558 25.9152 31.5646C25.9152 38.9339 34.2702 43.2314 40.2533 38.9721C41.5352 38.0622 42.5791 36.8182 43.2508 35.3649C46.0419 29.3561 41.5925 22.4805 35 22.4805ZM39.5852 30.2904C39.4718 30.3746 33.9526 34.471 33.9209 34.4945C33.5223 34.7916 32.9552 34.7517 32.6007 34.3763C30.0656 31.6745 30.2684 31.8902 30.2075 31.8264C29.7815 31.3727 29.8705 30.639 30.4034 30.3017C30.4041 30.3011 30.4048 30.3004 30.4054 30.3004C30.8012 30.052 31.3291 30.1098 31.6605 30.4631C32.1966 31.0345 31.8357 30.6499 33.4461 32.3656C33.6197 32.2361 35.6622 30.7209 38.4722 28.6356C38.9139 28.3076 39.5381 28.3999 39.8654 28.8415C40.1654 29.2441 40.1643 29.8613 39.5852 30.2904Z" fill="#1483F8"></path>
</g>
</svg>
