<svg width="90" height="90" viewBox="0 0 90 90" fill="none" xmlns="http://www.w3.org/2000/svg">
<circle cx="45" cy="45" r="45" fill="#E2F3FF"/>
<g clip-path="url(#clip0_3395_3690)">
<path d="M45.045 69.9998C44.5312 69.9998 43.6355 69.8533 41.7972 68.5884C40.6299 67.7846 39.278 66.6669 37.8875 65.3558C35.992 63.5679 32.389 59.8665 29.5559 55.1668C24.9634 47.5489 21.8373 35.3274 21.7064 34.8109C21.5443 34.1704 21.8212 33.4994 22.3877 33.1595C27.2774 30.2291 29.961 27.1247 31.3515 25.0369C32.8087 22.8484 33.1882 21.2901 33.2111 21.1917C33.3473 20.4883 33.9592 20 34.6763 20H55.4137C56.1309 20 56.7427 20.4883 56.8793 21.1917C56.9018 21.2901 57.2814 22.8488 58.7386 25.0369C60.1294 27.1251 62.813 30.2291 67.7023 33.1599C68.2692 33.4994 68.5461 34.1708 68.3836 34.8113C68.2528 35.3278 65.127 47.5489 60.5341 55.1672C57.701 59.8669 54.098 63.5679 52.2025 65.3558C50.8121 66.6673 49.4605 67.785 48.2928 68.5884C46.4545 69.8537 45.5589 69.9998 45.045 69.9998Z" fill="#7AB4F9"/>
<path d="M24.3184 43.3789C25.6592 47.2306 27.4536 51.6812 29.5559 55.1682C32.3891 59.8679 35.9921 63.5689 37.8876 65.3568C39.278 66.6683 40.6299 67.786 41.7972 68.5894C43.6355 69.8547 44.5312 70.0012 45.0451 70.0012H45.0458V43.3789H24.3184Z" fill="#C7E2FF"/>
<path d="M45.0458 43.3793V70.0012C45.56 70.0012 46.4553 69.8543 48.2928 68.5898C49.4601 67.7864 50.812 66.6683 52.2025 65.3572C54.098 63.5693 57.701 59.8682 60.5341 55.1682C62.636 51.6816 64.4308 47.231 65.7717 43.3789H45.0458V43.3793Z" fill="#1483F8"/>
<path d="M65.7718 43.378C67.3606 38.8141 68.3128 35.0913 68.3837 34.8113C68.5462 34.1708 68.2693 33.4995 67.7024 33.1599C62.8131 30.2291 60.1291 27.1251 58.7386 25.0369C57.2814 22.8488 56.9022 21.2901 56.8793 21.1917C56.7428 20.4883 56.1309 20 55.4137 20H45.0458V43.378H65.7718Z" fill="#C7E2FF"/>
<path d="M45.0458 20H34.6763C33.9592 20 33.3473 20.4883 33.2111 21.1917C33.1882 21.2901 32.8086 22.8488 31.3514 25.0369C29.961 27.1251 27.2769 30.2291 22.3876 33.1599C21.8208 33.4995 21.5438 34.1708 21.7063 34.8113C21.7773 35.0913 22.7294 38.8141 24.3183 43.378H45.0458V20Z" fill="#1483F8"/>
<path d="M45.0816 53.7632C39.3549 53.7632 34.696 49.1039 34.696 43.3777C34.696 37.6511 39.3549 32.9922 45.0816 32.9922C50.8082 32.9922 55.4671 37.6511 55.4671 43.3773C55.4671 49.1039 50.8082 53.7632 45.0816 53.7632Z" fill="white"/>
<path d="M34.696 43.3758C34.696 49.0509 39.2714 53.6762 44.9271 53.7594V32.9922C39.2714 33.075 34.696 37.7007 34.696 43.3758Z" fill="white"/>
<path d="M43.6489 47.6405C43.6249 47.6405 43.6005 47.6397 43.5764 47.6386C43.1545 47.6183 42.7612 47.4207 42.4931 47.0946L40.5827 44.773C40.0574 44.1344 40.1489 43.191 40.7875 42.6657C41.4257 42.1404 42.3691 42.2324 42.8944 42.8706L43.7569 43.9189L47.0574 40.618C47.6418 40.0336 48.5897 40.0336 49.1741 40.618C49.7589 41.2028 49.7589 42.1504 49.1741 42.7352L44.7071 47.2022C44.426 47.4833 44.0449 47.6405 43.6489 47.6405Z" fill="#1483F8"/>
</g>
<defs>
<clipPath id="clip0_3395_3690">
<rect width="50" height="50" fill="white" transform="translate(20 20)"/>
</clipPath>
</defs>
</svg>
