<svg width="90" height="90" viewBox="0 0 90 90" fill="none" xmlns="http://www.w3.org/2000/svg">
    <circle cx="45" cy="45" r="45" fill="#E2F3FF"></circle>
    <g clip-path="url(#clip0)">
        <path d="M43.9832 30.3516L36.7451 33.8771C36.0947 34.2035 35.5781 34.7474 35.2842 35.4143L26.2545 58.0507C25.3211 60.1647 26.2731 62.6359 28.3812 63.5698L37.3626 67.5496H44.0327L43.9832 30.3516Z" fill="#64B5F3"></path>
        <path d="M64.1025 61.201V65.5617C64.1025 67.9895 62.0714 70.0216 59.6427 70.0216H41.3078C38.879 70.0216 36.947 67.9895 36.947 65.5617V39.8927C36.947 39.127 37.1641 38.401 37.6516 37.8105L43.1642 31.1312C43.7907 30.372 44.684 29.8828 45.6685 29.8828H55.282C56.2665 29.8828 57.1598 30.372 57.7863 31.1312L63.299 37.8105C63.7864 38.401 64.1026 39.1271 64.1026 39.8927V57.7322V61.201H64.1025Z" fill="#1483F8"></path>
        <path d="M44.0844 59.5238C43.8943 59.5238 43.704 59.4513 43.5588 59.3061C43.2685 59.0158 43.2685 58.5452 43.5588 58.255L56.2446 45.5693C56.535 45.279 57.0056 45.279 57.2958 45.5693C57.5861 45.8596 57.5861 46.3302 57.2958 46.6204L44.61 59.3061C44.4649 59.4513 44.2746 59.5238 44.0844 59.5238Z" fill="#F5F5F5"></path>
        <path d="M45.6687 51.7155H45.5696C43.7935 51.7155 42.3486 50.2705 42.3486 48.4944C42.3486 46.7184 43.7935 45.2734 45.5696 45.2734H45.6687C47.4448 45.2734 48.8896 46.7184 48.8896 48.4944C48.8896 50.2705 47.4448 51.7155 45.6687 51.7155ZM45.5696 46.7601C44.6133 46.7601 43.8352 47.5382 43.8352 48.4944C43.8352 49.4507 44.6133 50.2288 45.5696 50.2288H45.6687C46.6249 50.2288 47.403 49.4507 47.403 48.4944C47.403 47.5382 46.6249 46.7601 45.6687 46.7601H45.5696Z" fill="#F5F5F5"></path>
        <path d="M55.3807 59.5278H55.2816C53.5054 59.5278 52.0605 58.0828 52.0605 56.3069C52.0605 54.5309 53.5054 53.0859 55.2816 53.0859H55.3807C57.1568 53.0859 58.6017 54.5309 58.6017 56.3069C58.6017 58.0828 57.1568 59.5278 55.3807 59.5278ZM55.2816 54.5725C54.3253 54.5725 53.5472 55.3506 53.5472 56.3069C53.5472 57.2631 54.3253 58.0412 55.2816 58.0412H55.3807C56.337 58.0412 57.1151 57.2631 57.1151 56.3069C57.1151 55.3506 56.337 54.5725 55.3807 54.5725H55.2816Z" fill="#F5F5F5"></path>
        <path d="M52.0908 35.9062C51.7682 35.9062 51.4713 35.6946 51.3771 35.3693C51.263 34.9749 51.4903 34.5627 51.8847 34.4487C51.969 34.4243 52.0538 34.3975 52.1369 34.3692C54.4035 33.5954 55.9263 31.4652 55.9263 29.0684V20.7433C55.9263 20.3328 56.2591 20 56.6696 20C57.0801 20 57.4129 20.3328 57.4129 20.7433V29.0684C57.4129 32.1013 55.4856 34.7968 52.6171 35.776C52.5119 35.8119 52.4045 35.8458 52.2976 35.8767C52.2288 35.8967 52.1592 35.9062 52.0908 35.9062Z" fill="#3F6C9B"></path>
        <path d="M50.5248 37.7439C49.2406 37.7439 48.1958 36.6992 48.1958 35.4149C48.1958 34.1307 49.2406 33.0859 50.5248 33.0859C51.8091 33.0859 52.8539 34.1307 52.8539 35.4149C52.8539 36.6992 51.8091 37.7439 50.5248 37.7439Z" fill="#F5F5F5"></path>
    </g>
    <defs>
        <clipPath id="clip0">
            <rect width="50" height="50" fill="white" transform="translate(20 20)"></rect>
        </clipPath>
    </defs>
</svg>