<svg width="60" height="60" viewBox="0 0 60 60" fill="none" xmlns="http://www.w3.org/2000/svg">
<circle opacity="0.2" cx="30" cy="30" r="29" stroke="#3F6C9B" stroke-width="2"/>
<path opacity="0.4" d="M40 33.94C40 36.73 37.76 38.99 34.97 39H34.96H25.05C22.27 39 20 36.75 20 33.96V33.95C20 33.95 20.006 29.524 20.014 27.298C20.015 26.88 20.495 26.646 20.822 26.906C23.198 28.791 27.447 32.228 27.5 32.273C28.21 32.842 29.11 33.163 30.03 33.163C30.95 33.163 31.85 32.842 32.56 32.262C32.613 32.227 36.767 28.893 39.179 26.977C39.507 26.716 39.989 26.95 39.99 27.367C40 29.576 40 33.94 40 33.94" fill="#3F6C9B"/>
<path d="M39.4759 23.674C38.6099 22.042 36.9059 21 35.0299 21H25.0499C23.1739 21 21.4699 22.042 20.6039 23.674C20.4099 24.039 20.5019 24.494 20.8249 24.752L28.2499 30.691C28.7699 31.111 29.3999 31.32 30.0299 31.32C30.0339 31.32 30.0369 31.32 30.0399 31.32C30.0429 31.32 30.0469 31.32 30.0499 31.32C30.6799 31.32 31.3099 31.111 31.8299 30.691L39.2549 24.752C39.5779 24.494 39.6699 24.039 39.4759 23.674" fill="#3F6C9B"/>
</svg>
