<svg width="36" height="36" viewBox="0 0 36 36" fill="none" xmlns="http://www.w3.org/2000/svg">
<rect width="36" height="36" rx="18" fill="#304151"/>
<path d="M15.7397 22.7695C15.7397 22.707 15.6772 22.6445 15.5835 22.6445C15.4897 22.6445 15.4272 22.707 15.4272 22.7695C15.4272 22.832 15.4897 22.8945 15.5835 22.8633C15.6772 22.8633 15.7397 22.832 15.7397 22.7695ZM14.771 22.6133C14.771 22.6758 14.8335 22.7695 14.9272 22.7695C14.9897 22.8008 15.0835 22.7695 15.1147 22.707C15.1147 22.6445 15.0835 22.582 14.9897 22.5508C14.896 22.5195 14.8022 22.5508 14.771 22.6133ZM16.1772 22.582C16.0835 22.582 16.021 22.6445 16.021 22.7383C16.021 22.8008 16.1147 22.832 16.2085 22.8008C16.3022 22.7695 16.3647 22.7383 16.3335 22.6758C16.3335 22.6133 16.2397 22.5508 16.1772 22.582ZM18.2085 10.582C13.896 10.582 10.5835 13.8945 10.5835 18.207C10.5835 21.6758 12.7397 24.6445 15.8647 25.707C16.271 25.7695 16.396 25.5195 16.396 25.332C16.396 25.1133 16.396 24.0508 16.396 23.3945C16.396 23.3945 14.2085 23.8633 13.7397 22.457C13.7397 22.457 13.396 21.5508 12.896 21.332C12.896 21.332 12.1772 20.832 12.9272 20.832C12.9272 20.832 13.7085 20.8945 14.146 21.6445C14.8335 22.8633 15.9585 22.5195 16.4272 22.3008C16.4897 21.8008 16.6772 21.457 16.9272 21.2383C15.1772 21.0508 13.396 20.8008 13.396 17.8008C13.396 16.9258 13.646 16.5195 14.146 15.957C14.0522 15.7383 13.8022 14.9258 14.2397 13.832C14.8647 13.6445 16.396 14.6758 16.396 14.6758C17.021 14.4883 17.6772 14.4258 18.3335 14.4258C19.021 14.4258 19.6772 14.4883 20.3022 14.6758C20.3022 14.6758 21.8022 13.6133 22.4585 13.832C22.896 14.9258 22.6147 15.7383 22.5522 15.957C23.0522 16.5195 23.3647 16.9258 23.3647 17.8008C23.3647 20.8008 21.521 21.0508 19.771 21.2383C20.0522 21.4883 20.3022 21.957 20.3022 22.707C20.3022 23.7383 20.271 25.0508 20.271 25.3008C20.271 25.5195 20.4272 25.7695 20.8335 25.6758C23.9585 24.6445 26.0835 21.6758 26.0835 18.207C26.0835 13.8945 22.5522 10.582 18.2085 10.582ZM13.6147 21.3633C13.5522 21.3945 13.5835 21.4883 13.6147 21.5508C13.6772 21.582 13.7397 21.6133 13.8022 21.582C13.8335 21.5508 13.8335 21.457 13.771 21.3945C13.7085 21.3633 13.646 21.332 13.6147 21.3633ZM13.271 21.1133C13.2397 21.1758 13.271 21.207 13.3335 21.2383C13.396 21.2695 13.4585 21.2695 13.4897 21.207C13.4897 21.1758 13.4585 21.1445 13.396 21.1133C13.3335 21.082 13.3022 21.082 13.271 21.1133ZM14.271 22.2383C14.2397 22.2695 14.2397 22.3633 14.3335 22.4258C14.396 22.4883 14.4897 22.5195 14.521 22.457C14.5522 22.4258 14.5522 22.332 14.4897 22.2695C14.4272 22.207 14.3335 22.1758 14.271 22.2383ZM13.9272 21.7695C13.8647 21.8008 13.8647 21.8945 13.9272 21.957C13.9897 22.0195 14.0522 22.0508 14.1147 22.0195C14.146 21.9883 14.146 21.8945 14.1147 21.832C14.0522 21.7695 13.9897 21.7383 13.9272 21.7695Z" fill="#C9D4DF"/>
</svg>
