<svg width="90" height="90" viewBox="0 0 90 90" fill="none" xmlns="http://www.w3.org/2000/svg">
    <circle cx="45" cy="45" r="45" fill="#E2F3FF"></circle>
    <g clip-path="url(#clip0)">
        <path d="M41.4163 53.7773H64.7145V63.3712H41.4163V53.7773Z" fill="#64B5F3"></path>
        <path d="M64.5851 60.4258H41.5459C38.7573 60.4258 36.4885 62.6945 36.4885 65.4832V70.0054H69.6425V65.4832C69.6425 62.6945 67.3739 60.4258 64.5851 60.4258Z" fill="#1483F8"></path>
        <path d="M38.2126 45.4375L46.7643 36.8859L48.8471 38.9687L40.2955 47.5204L38.2126 45.4375Z" fill="#64B5F3"></path>
        <path d="M41.7915 33.9922L50.2959 25.4878L60.2433 35.4352L51.7389 43.9396L41.7915 33.9922Z" fill="#64B5F3"></path>
        <path d="M36.3804 30.8906L47.2658 20.0051L52.6238 25.3631L41.7383 36.2486L36.3804 30.8906Z" fill="#1483F8"></path>
        <path d="M49.4832 43.9961L60.3686 33.1107L65.7265 38.4686L54.8411 49.3541L49.4832 43.9961Z" fill="#1483F8"></path>
        <path d="M28.0689 64.0737L43.5042 48.6384L37.1158 42.25L21.6806 57.6853C20.8274 58.5385 20.3574 59.6729 20.3574 60.8795C20.3574 62.0861 20.8273 63.2206 21.6805 64.0737C23.4419 65.835 26.3077 65.835 28.0689 64.0737Z" fill="#1483F8"></path>
    </g>
</svg>