<svg width="36" height="36" viewBox="0 0 36 36" fill="none" xmlns="http://www.w3.org/2000/svg">
<rect width="36" height="36" rx="18" fill="#304151"/>
<path d="M24.3335 11.332H12.3022C11.771 11.332 11.3335 11.8008 11.3335 12.3633V24.332C11.3335 24.8945 11.771 25.332 12.3022 25.332H24.3335C24.8647 25.332 25.3335 24.8945 25.3335 24.332V12.3633C25.3335 11.8008 24.8647 11.332 24.3335 11.332ZM15.5522 23.332H13.4897V16.6758H15.5522V23.332ZM14.521 15.7383C13.8335 15.7383 13.3022 15.207 13.3022 14.5508C13.3022 13.8945 13.8335 13.332 14.521 13.332C15.1772 13.332 15.7085 13.8945 15.7085 14.5508C15.7085 15.207 15.1772 15.7383 14.521 15.7383ZM23.3335 23.332H21.2397V20.082C21.2397 19.332 21.2397 18.332 20.1772 18.332C19.0835 18.332 18.9272 19.1758 18.9272 20.0508V23.332H16.8647V16.6758H18.8335V17.582H18.8647C19.146 17.0508 19.8335 16.4883 20.8335 16.4883C22.9272 16.4883 23.3335 17.8945 23.3335 19.6758V23.332Z" fill="#C9D4DF"/>
</svg>
