<svg width="36" height="36" viewBox="0 0 36 36" fill="none" xmlns="http://www.w3.org/2000/svg">
<rect width="36" height="36" rx="18" fill="#E9EEF3"/>
<path d="M24 11.332H11.9688C11.4375 11.332 11 11.8008 11 12.3633V24.332C11 24.8945 11.4375 25.332 11.9688 25.332H24C24.5312 25.332 25 24.8945 25 24.332V12.3633C25 11.8008 24.5312 11.332 24 11.332ZM15.2188 23.332H13.1562V16.6758H15.2188V23.332ZM14.1875 15.7383C13.5 15.7383 12.9688 15.207 12.9688 14.5508C12.9688 13.8945 13.5 13.332 14.1875 13.332C14.8438 13.332 15.375 13.8945 15.375 14.5508C15.375 15.207 14.8438 15.7383 14.1875 15.7383ZM23 23.332H20.9062V20.082C20.9062 19.332 20.9062 18.332 19.8438 18.332C18.75 18.332 18.5938 19.1758 18.5938 20.0508V23.332H16.5312V16.6758H18.5V17.582H18.5312C18.8125 17.0508 19.5 16.4883 20.5 16.4883C22.5938 16.4883 23 17.8945 23 19.6758V23.332Z" fill="#3F6C9B"/>
</svg>
