<svg xmlns="http://www.w3.org/2000/svg" width="120" height="120" viewBox="0 0 120 120" fill="none" style="animation: circle 1.75s linear infinite;">
<style> @keyframes circle{0%{transform:rotate(0deg);}100%{transform:rotate(360deg);}}</style>
<path d="M1.10523 62.601C0.649231 55.191 1.67523 47.439 4.18323 40.257C6.69123 32.961 10.6812 26.121 15.8112 20.307C21.0552 14.493 27.4392 9.47703 34.7352 6.05703C41.9172 2.52303 50.0112 0.471023 58.2192 0.015023C61.4112 -0.212977 64.0332 2.18102 64.2612 5.37302C64.4892 8.56502 62.0952 11.187 58.9032 11.415C58.6752 11.415 58.4472 11.415 58.2192 11.415C51.4932 10.959 44.6532 11.757 38.0412 14.037C31.5432 16.203 25.2732 19.737 19.9152 24.411C14.5572 29.085 10.1112 34.899 6.91924 41.397C3.49924 47.895 1.56123 55.077 1.10523 62.601Z" fill="#1D2F40"/>
</svg>
