<svg xmlns="http://www.w3.org/2000/svg" xmlns:xlink="http://www.w3.org/1999/xlink" viewBox="0 0 36 36" width="36px" height="36px" style="&#10;    fill: #304151;&#10;"><rect xmlns="http://www.w3.org/2000/svg" width="36" height="36" rx="18" fill="#304151"/>
<g id="surface7033532" style="&#10;    transform: translate(2px, 3px);&#10;">
<path style="stroke:none;fill-rule:nonzero;fill: #C9D4DF;fill-opacity:1;" d="M 17.214844 16 C 17.214844 20.019531 13.953125 23.28125 9.933594 23.28125 C 5.914062 23.28125 2.652344 20.019531 2.652344 16 C 2.652344 11.980469 5.914062 8.71875 9.933594 8.71875 C 13.953125 8.71875 17.214844 11.980469 17.214844 16 Z M 17.214844 16 "/>
<path style="stroke:none;fill-rule:nonzero;fill: #C9D4DF;fill-opacity:1;" d="M 25.707031 16 C 25.707031 19.6875 24.078125 22.671875 22.066406 22.671875 C 20.054688 22.671875 18.425781 19.6875 18.425781 16 C 18.425781 12.3125 20.054688 9.328125 22.066406 9.328125 C 24.078125 9.328125 25.707031 12.3125 25.707031 16 Z M 25.707031 16 "/>
<path style="stroke:none;fill-rule:nonzero;fill: #C9D4DF;fill-opacity:1;" d="M 29.347656 16 C 29.347656 19.351562 28.804688 22.066406 28.132812 22.066406 C 27.464844 22.066406 26.921875 19.351562 26.921875 16 C 26.921875 12.648438 27.464844 9.933594 28.132812 9.933594 C 28.804688 9.933594 29.347656 12.648438 29.347656 16 Z M 29.347656 16 "/>
</g>
</svg>