<svg width="24" height="24" viewBox="0 0 24 24" fill="none" xmlns="http://www.w3.org/2000/svg">
    <path fill-rule="evenodd" clip-rule="evenodd" d="M21.9 6.24074H2.1C1.49281 6.24074 1 5.73884 1 5.12037C1 4.5019 1.49281 4 2.1 4H21.9C22.5072 4.00004 23 4.50193 23 5.1204C23 5.73884 22.5072 6.24074 21.9 6.24074ZM11.3105 18.668H21.9C22.5072 18.668 23 19.1699 23 19.7883C23 20.4068 22.5072 20.9087 21.9 20.9087H11.3105C10.7033 20.9087 10.2105 20.4068 10.2105 19.7883C10.2105 19.1699 10.7033 18.668 11.3105 18.668ZM21.9 11.332H2.1C1.49281 11.332 1 11.834 1 12.4524C1 13.0709 1.49281 13.5728 2.1 13.5728H21.9C22.5072 13.5728 23 13.0709 23 12.4524C23 11.834 22.5072 11.332 21.9 11.332Z" fill="white"
    />
</svg>