<svg width="90" height="90" viewBox="0 0 90 90" fill="none" xmlns="http://www.w3.org/2000/svg" xmlns:xlink= "http://www.w3.org/1999/xlink">
<circle cx="45" cy="45" r="45" fill="#E2F3FF"></circle>
<path d="M60.2267 26.7979V44.0137C60.2267 44.9766 60.1749 45.9307 60.0734 46.8721C59.5724 51.5322 57.8575 55.8936 55.2023 59.5771C52.9415 62.7139 50.0001 65.3584 46.545 67.2783C45.1222 68.0693 43.6115 68.7373 42.0265 69.2656C31.1573 65.6426 23.8253 55.4707 23.8253 44.0137V26.7979L42.0265 20.7305L60.2267 26.7979Z" fill="#1483F8"></path>
<path opacity="0.1" d="M42.0264 66.0206C32.9263 62.5452 26.8824 53.828 26.8824 44.0141V29.0011L42.0264 23.9531L57.1703 29.0011V44.0141C57.1702 53.828 51.1265 62.5452 42.0264 66.0206Z" fill="white"></path>
<path d="M49.6615 54.0969H34.3907C33.5818 54.0969 32.9259 53.441 32.9259 52.632V40.3945C32.9259 39.5855 33.5818 38.9297 34.3907 38.9297H49.6616C50.4706 38.9297 51.1265 39.5855 51.1265 40.3945V52.6319C51.1264 53.441 50.4706 54.0969 49.6615 54.0969Z" fill="white"></path>
<path d="M44.3012 44.2399C44.3012 42.9835 43.2826 41.9648 42.0261 41.9648C40.7695 41.9648 39.751 42.9834 39.751 44.2399C39.751 44.9136 40.044 45.5186 40.5093 45.9351V49.5484C40.5093 50.3861 41.1883 51.0651 42.026 51.0651C42.8637 51.0651 43.5427 50.3861 43.5427 49.5484V45.9353C44.0081 45.5187 44.3012 44.9137 44.3012 44.2399Z" fill="white"></path>
<path d="M35.9594 38.9333V34.3832C35.9594 31.0326 38.6756 28.3164 42.0261 28.3164C45.3767 28.3164 48.0929 31.0326 48.0929 34.3832V38.9333H45.0596V34.3832C45.0596 32.7079 43.7015 31.3498 42.0262 31.3498C40.351 31.3498 38.9928 32.7079 38.9928 34.3832V38.9333H35.9594Z" fill="white"></path>
<path d="M55.617 69.2652C61.4806 69.2652 66.234 64.5118 66.234 58.6482C66.234 52.7846 61.4806 48.0312 55.617 48.0312C49.7534 48.0312 45 52.7846 45 58.6482C45 64.5118 49.7534 69.2652 55.617 69.2652Z" fill="#C7E2FF"></path>
<path d="M55.6617 66.6921C60.1287 66.6921 63.75 63.0709 63.75 58.6039C63.75 54.1369 60.1287 50.5156 55.6617 50.5156C51.1947 50.5156 47.5735 54.1369 47.5735 58.6039C47.5735 63.0709 51.1947 66.6921 55.6617 66.6921Z" fill="#C7E2FF"></path>
<path d="M60.2266 62.1211V64.7188C58.96 65.6709 57.3838 66.2354 55.6768 66.2354C53.9697 66.2354 52.3936 65.6709 51.126 64.7178V62.1211C51.126 61.043 52.001 60.168 53.0791 60.168H58.2734C59.3525 60.168 60.2266 61.043 60.2266 62.1211Z" fill="white"></path>
<path d="M55.6767 60.1645C57.352 60.1645 58.7101 58.8064 58.7101 57.1311C58.7101 55.4558 57.352 54.0977 55.6767 54.0977C54.0014 54.0977 52.6433 55.4558 52.6433 57.1311C52.6433 58.8064 54.0014 60.1645 55.6767 60.1645Z" fill="white"></path>
<path d="M39.777 49.5503C39.777 50.7905 40.7859 51.7994 42.0261 51.7994C43.2662 51.7994 44.2751 50.7904 44.2751 49.5503V46.2379C44.7605 45.6905 45.0336 44.9801 45.0336 44.2419C45.0336 42.5836 43.6845 41.2344 42.0261 41.2344C40.3677 41.2344 39.0186 42.5835 39.0186 44.2419C39.0186 44.98 39.2915 45.6904 39.777 46.2378V49.5503ZM42.0261 42.6991C42.8767 42.6991 43.5687 43.3911 43.5687 44.2418C43.5687 44.6797 43.3813 45.0987 43.0542 45.3914C42.8989 45.5304 42.8103 45.7288 42.8103 45.9371V49.5503C42.8103 49.9827 42.4584 50.3346 42.0261 50.3346C41.5936 50.3346 41.2418 49.9827 41.2418 49.5503V45.937C41.2418 45.7287 41.1531 45.5303 40.9979 45.3913C40.6709 45.0985 40.4834 44.6796 40.4834 44.2418C40.4835 43.3912 41.1755 42.6991 42.0261 42.6991Z" fill="#1483F8"></path>
<path d="M55.6766 50.332C51.0912 50.332 47.3607 54.0626 47.3607 58.648C47.3607 63.1894 51.153 66.964 55.6766 66.964C60.2002 66.964 63.9926 63.1891 63.9926 58.648C63.9926 54.0626 60.2621 50.332 55.6766 50.332ZM51.8585 64.3338V62.1178C51.8585 61.4446 52.406 60.8971 53.0792 60.8971H58.2734C58.9466 60.8971 59.4941 61.4446 59.4941 62.1178V64.3341C58.4025 65.0693 57.0888 65.4991 55.6765 65.4991C54.2641 65.4991 52.9502 65.0692 51.8585 64.3338ZM53.3756 57.1313C53.3756 55.8626 54.4078 54.8303 55.6766 54.8303C56.9455 54.8303 57.9777 55.8625 57.9777 57.1313C57.9777 58.3988 56.9474 59.4302 55.6804 59.4322H55.6729C54.4058 59.4302 53.3756 58.3988 53.3756 57.1313ZM60.959 63.0062V62.1178C60.959 60.7597 59.9453 59.6345 58.6349 59.4572C59.1399 58.8163 59.4424 58.0087 59.4424 57.1313C59.4424 55.0548 57.753 53.3654 55.6764 53.3654C53.5999 53.3654 51.9105 55.0548 51.9105 57.1313C51.9105 58.0087 52.213 58.8163 52.7179 59.4572C51.4074 59.6343 50.3934 60.7595 50.3934 62.1178V63.0055C49.4143 61.8204 48.8253 60.3018 48.8253 58.648C48.8253 54.8703 51.8987 51.7969 55.6763 51.7969C59.454 51.7969 62.5274 54.8703 62.5274 58.648C62.5277 60.302 61.9385 61.821 60.959 63.0062Z" fill="#1483F8"></path>
</svg>
