<svg width="20" height="20" viewBox="0 0 20 20" fill="none" xmlns="http://www.w3.org/2000/svg">
<path fill-rule="evenodd" clip-rule="evenodd" d="M9.67624 1.66797C5.25265 1.66797 1.66663 5.1748 1.66663 9.50069C1.66663 13.8266 5.25265 17.3334 9.67624 17.3334C11.5682 17.3334 13.3069 16.6919 14.6774 15.6192L17.2808 18.1585L17.3501 18.2168C17.5918 18.3917 17.9345 18.3718 18.1532 18.1574C18.3938 17.9215 18.3933 17.5396 18.1521 17.3043L15.5793 14.7949C16.8874 13.4008 17.6859 11.5419 17.6859 9.50069C17.6859 5.1748 14.0998 1.66797 9.67624 1.66797ZM9.67624 2.87442C13.4185 2.87442 16.4522 5.8411 16.4522 9.50069C16.4522 13.1603 13.4185 16.127 9.67624 16.127C5.93401 16.127 2.90032 13.1603 2.90032 9.50069C2.90032 5.8411 5.93401 2.87442 9.67624 2.87442Z" fill="#000"/>
</svg>
