<svg width="36" height="36" viewBox="0 0 36 36" fill="none" xmlns="http://www.w3.org/2000/svg">
<rect width="36" height="36" rx="18" fill="#304151"/>
<path d="M24.6768 15.082C25.3018 14.6133 25.8643 14.0508 26.3018 13.3945C25.7393 13.6445 25.083 13.832 24.4268 13.8945C25.1143 13.4883 25.6143 12.8633 25.8643 12.082C25.2393 12.457 24.5205 12.7383 23.8018 12.8945C23.1768 12.2383 22.333 11.8633 21.3955 11.8633C19.583 11.8633 18.1143 13.332 18.1143 15.1445C18.1143 15.3945 18.1455 15.6445 18.208 15.8945C15.4893 15.7383 13.0518 14.4258 11.4268 12.457C11.1455 12.9258 10.9893 13.4883 10.9893 14.1133C10.9893 15.2383 11.5518 16.2383 12.458 16.832C11.9268 16.8008 11.3955 16.6758 10.958 16.4258V16.457C10.958 18.0508 12.083 19.3633 13.583 19.6758C13.333 19.7383 13.0205 19.8008 12.7393 19.8008C12.5205 19.8008 12.333 19.7695 12.1143 19.7383C12.5205 21.0508 13.7393 21.9883 15.1768 22.0195C14.0518 22.8945 12.6455 23.4258 11.1143 23.4258C10.833 23.4258 10.583 23.3945 10.333 23.3633C11.7705 24.3008 13.4893 24.832 15.3643 24.832C21.3955 24.832 24.6768 19.8633 24.6768 15.5195C24.6768 15.3633 24.6768 15.2383 24.6768 15.082Z" fill="#C9D4DF"/>
</svg>
