<svg width="36" height="36" viewBox="0 0 36 36" fill="none" xmlns="http://www.w3.org/2000/svg">
<rect width="36" height="36" rx="18" fill="#E9EEF3"/>
<path d="M24.3438 14.75C24.9688 14.2812 25.5312 13.7188 25.9688 13.0625C25.4062 13.3125 24.75 13.5 24.0938 13.5625C24.7812 13.1562 25.2812 12.5312 25.5312 11.75C24.9062 12.125 24.1875 12.4062 23.4688 12.5625C22.8438 11.9062 22 11.5312 21.0625 11.5312C19.25 11.5312 17.7812 13 17.7812 14.8125C17.7812 15.0625 17.8125 15.3125 17.875 15.5625C15.1562 15.4062 12.7188 14.0938 11.0938 12.125C10.8125 12.5938 10.6562 13.1562 10.6562 13.7812C10.6562 14.9062 11.2188 15.9062 12.125 16.5C11.5938 16.4688 11.0625 16.3438 10.625 16.0938V16.125C10.625 17.7188 11.75 19.0312 13.25 19.3438C13 19.4062 12.6875 19.4688 12.4062 19.4688C12.1875 19.4688 12 19.4375 11.7812 19.4062C12.1875 20.7188 13.4062 21.6562 14.8438 21.6875C13.7188 22.5625 12.3125 23.0938 10.7812 23.0938C10.5 23.0938 10.25 23.0625 10 23.0312C11.4375 23.9688 13.1562 24.5 15.0312 24.5C21.0625 24.5 24.3438 19.5312 24.3438 15.1875C24.3438 15.0312 24.3438 14.9062 24.3438 14.75Z" fill="#3F6C9B"/>
</svg>
