<svg width="90" height="90" viewBox="0 0 90 90" fill="none" xmlns="http://www.w3.org/2000/svg">
    <circle cx="45" cy="45" r="45" fill="#C7E2FF"></circle>
    <path d="M45 70C58.8071 70 70 58.8071 70 45C70 31.1929 58.8071 20 45 20C31.1929 20 20 31.1929 20 45C20 58.8071 31.1929 70 45 70Z" fill="#64B5F3"></path>
    <path d="M45.0002 66.8104C57.0463 66.8104 66.8116 57.0451 66.8116 44.999C66.8116 32.9528 57.0463 23.1875 45.0002 23.1875C32.954 23.1875 23.1887 32.9528 23.1887 44.999C23.1887 57.0451 32.954 66.8104 45.0002 66.8104Z" fill="white"></path>
    <path d="M45.0001 65.8346C56.506 65.8346 65.8334 56.5072 65.8334 45.0013C65.8334 33.4954 56.506 24.168 45.0001 24.168C33.4941 24.168 24.1667 33.4954 24.1667 45.0013C24.1667 56.5072 33.4941 65.8346 45.0001 65.8346Z" fill="#1483F8"></path>
    <path d="M45.0833 47.1667C46.2339 47.1667 47.1667 46.2339 47.1667 45.0833C47.1667 43.9327 46.2339 43 45.0833 43C43.9327 43 43 43.9327 43 45.0833C43 46.2339 43.9327 47.1667 45.0833 47.1667Z" fill="white"></path>
    <path d="M30.417 43.9609H37.7087V46.0443H30.417V43.9609Z" fill="white"></path>
    <path d="M30.4168 47.0221C31.5674 47.0221 32.5002 46.0894 32.5002 44.9388C32.5002 43.7882 31.5674 42.8555 30.4168 42.8555C29.2662 42.8555 28.3335 43.7882 28.3335 44.9388C28.3335 46.0894 29.2662 47.0221 30.4168 47.0221Z" fill="white"></path>
    <path d="M59.5835 43.9609H52.2918V46.0443H59.5835V43.9609Z" fill="white"></path>
    <path d="M59.5834 47.0221C58.4328 47.0221 57.5001 46.0894 57.5001 44.9388C57.5001 43.7882 58.4328 42.8555 59.5834 42.8555C60.734 42.8555 61.6667 43.7882 61.6667 44.9388C61.6667 46.0894 60.734 47.0221 59.5834 47.0221Z" fill="white"></path>
    <path d="M40.8333 41.8802H35.6249C35.3487 41.8802 35.0837 41.7705 34.8883 41.5751C34.693 41.3798 34.5833 41.1148 34.5833 40.8385V36.6719H36.6666V39.7969H40.8333V41.8802Z" fill="white"></path>
    <path d="M35.6251 37.6471C36.7757 37.6471 37.7084 36.7144 37.7084 35.5638C37.7084 34.4132 36.7757 33.4805 35.6251 33.4805C34.4745 33.4805 33.5417 34.4132 33.5417 35.5638C33.5417 36.7144 34.4745 37.6471 35.6251 37.6471Z" fill="white"></path>
    <path d="M49.167 41.8802H54.3753C54.6516 41.8802 54.9165 41.7705 55.1119 41.5751C55.3072 41.3798 55.417 41.1148 55.417 40.8385V36.6719H53.3337V39.7969H49.167V41.8802Z" fill="white"></path>
    <path d="M54.3752 37.6471C53.2246 37.6471 52.2918 36.7144 52.2918 35.5638C52.2918 34.4132 53.2246 33.4805 54.3752 33.4805C55.5258 33.4805 56.4585 34.4132 56.4585 35.5638C56.4585 36.7144 55.5258 37.6471 54.3752 37.6471Z" fill="white"></path>
    <path d="M40.8333 48.1198H35.6249C35.3487 48.1198 35.0837 48.2295 34.8883 48.4249C34.693 48.6202 34.5833 48.8852 34.5833 49.1615V53.3281H36.6666V50.2031H40.8333V48.1198Z" fill="white"></path>
    <path d="M35.6251 52.3529C36.7757 52.3529 37.7084 53.2856 37.7084 54.4362C37.7084 55.5868 36.7757 56.5195 35.6251 56.5195C34.4745 56.5195 33.5417 55.5868 33.5417 54.4362C33.5417 53.2856 34.4745 52.3529 35.6251 52.3529Z" fill="white"></path>
    <path d="M49.167 48.1198H54.3753C54.6516 48.1198 54.9165 48.2295 55.1119 48.4249C55.3072 48.6202 55.417 48.8852 55.417 49.1615V53.3281H53.3337V50.2031H49.167V48.1198Z" fill="white"></path>
    <path d="M54.3752 52.3529C53.2246 52.3529 52.2918 53.2856 52.2918 54.4362C52.2918 55.5868 53.2246 56.5195 54.3752 56.5195C55.5258 56.5195 56.4585 55.5868 56.4585 54.4362C56.4585 53.2856 55.5258 52.3529 54.3752 52.3529Z" fill="white"></path>
    <path d="M43.9585 31.4609H46.0418V38.7526H43.9585V31.4609Z" fill="white"></path>
    <path d="M45.0001 32.4362C46.1507 32.4362 47.0834 31.5035 47.0834 30.3529C47.0834 29.2023 46.1507 28.2695 45.0001 28.2695C43.8495 28.2695 42.9167 29.2023 42.9167 30.3529C42.9167 31.5035 43.8495 32.4362 45.0001 32.4362Z" fill="white"></path>
    <path d="M43.9585 58.5391H46.0418V51.2474H43.9585V58.5391Z" fill="white"></path>
    <path d="M45.0001 57.5638C46.1507 57.5638 47.0834 58.4965 47.0834 59.6471C47.0834 60.7977 46.1507 61.7305 45.0001 61.7305C43.8495 61.7305 42.9167 60.7977 42.9167 59.6471C42.9167 58.4965 43.8495 57.5638 45.0001 57.5638Z" fill="white"></path>
</svg>