<svg width="90" height="90" viewBox="0 0 90 90" fill="none" xmlns="http://www.w3.org/2000/svg" xmlns:xlink= "http://www.w3.org/1999/xlink">
<circle cx="45" cy="45" r="45" fill="#E2F3FF"></circle>
<path d="M70 47.5225V42.4775C70 42.1767 69.8213 41.9045 69.5453 41.785L66.5142 40.4728C66.3496 39.6865 66.1423 38.916 65.8962 38.1631L67.8644 35.5116C68.0437 35.27 68.0624 34.9451 67.912 34.6846L65.3895 30.3156C65.239 30.0549 64.9481 29.9086 64.6491 29.9434L61.3643 30.3245C60.8322 29.7316 60.2684 29.1678 59.6754 28.6357L60.0566 25.3509C60.0913 25.0519 59.9451 24.761 59.6844 24.6105L55.3154 22.088C55.0549 21.9376 54.73 21.9563 54.4884 22.1356L51.8369 24.1038C51.084 23.8576 50.3135 23.6505 49.5272 23.4858L48.215 20.4547C48.0955 20.1787 47.8233 20 47.5225 20H42.4775C42.1767 20 41.9045 20.1787 41.785 20.4547L40.4728 23.4858C39.6865 23.6504 38.916 23.8576 38.1631 24.1038L35.5116 22.1356C35.27 21.9563 34.9451 21.9376 34.6846 22.088L30.3156 24.6105C30.0549 24.761 29.9086 25.0519 29.9434 25.3509L30.3245 28.6357C29.7316 29.1678 29.1678 29.7316 28.6357 30.3245L25.3509 29.9434C25.0519 29.9086 24.761 30.0549 24.6105 30.3156L22.088 34.6846C21.9376 34.9451 21.9563 35.27 22.1356 35.5116L24.1038 38.1631C23.8576 38.916 23.6505 39.6865 23.4858 40.4728L20.4547 41.785C20.1787 41.9045 20 42.1767 20 42.4775V47.5225C20 47.8233 20.1787 48.0955 20.4547 48.215L23.4858 49.5272C23.6504 50.3135 23.8575 51.084 24.1038 51.8369L22.1356 54.4884C21.9563 54.73 21.9376 55.0549 22.088 55.3154L24.6105 59.6844C24.761 59.9451 25.0519 60.0913 25.3509 60.0566L28.6357 59.6754C29.1678 60.2684 29.7316 60.8322 30.3245 61.3643L29.9434 64.6491C29.9086 64.9481 30.0549 65.239 30.3156 65.3895L34.6846 67.912C34.9451 68.0624 35.27 68.0437 35.5116 67.8644L38.1631 65.8962C38.916 66.1423 39.6865 66.3495 40.4728 66.5142L41.785 69.5453C41.9045 69.8213 42.1766 70 42.4775 70H47.5225C47.8233 70 48.0955 69.8213 48.215 69.5453L49.5272 66.5142C50.3135 66.3496 51.084 66.1424 51.8369 65.8962L54.4884 67.8644C54.73 68.0437 55.0549 68.0624 55.3154 67.912L59.6844 65.3895C59.9451 65.239 60.0913 64.9481 60.0566 64.6491L59.6754 61.3643C60.2684 60.8322 60.8322 60.2684 61.3643 59.6754L64.6491 60.0566C64.9481 60.0913 65.239 59.9451 65.3895 59.6844L67.912 55.3154C68.0624 55.0549 68.0437 54.73 67.8644 54.4884L65.8962 51.8369C66.1423 51.084 66.3495 50.3135 66.5142 49.5272L69.5453 48.215C69.8213 48.0955 70 47.8233 70 47.5225Z" fill="#1483F8"></path>
<path d="M44.9999 63.9627C55.4733 63.9627 63.9637 55.4723 63.9637 44.9989C63.9637 34.5255 55.4733 26.0352 44.9999 26.0352C34.5265 26.0352 26.0361 34.5255 26.0361 44.9989C26.0361 55.4723 34.5265 63.9627 44.9999 63.9627Z" fill="#C7E2FF"></path>
<path d="M45 61.1772C53.934 61.1772 61.1764 53.9347 61.1764 45.0007C61.1764 36.0667 53.934 28.8242 45 28.8242C36.0659 28.8242 28.8235 36.0667 28.8235 45.0007C28.8235 53.9347 36.0659 61.1772 45 61.1772Z" fill="white"></path>
<path d="M53.0786 51.6121C53.2201 51.4706 53.2996 51.2787 53.2996 51.0786V45.7969H51.7906V50.7661L48.9935 53.5632C48.8519 53.7046 48.7725 53.8966 48.7725 54.0967V60.7325C49.2394 60.6349 49.6989 60.497 50.2479 60.3074L50.2815 54.4091L53.0786 51.6121Z" fill="#1483F8"></path>
<path d="M44.9999 60.9534C45.2529 60.9534 45.5043 60.9469 45.7544 60.9352V60.9258L44.9999 60.9534Z" fill="#1483F8"></path>
<path d="M44.2454 37.3594V61.1623C44.4956 61.1741 44.7468 61.1818 44.9999 61.1818C45.2532 61.1818 45.5047 61.1718 45.7544 61.154V37.3594H44.2454Z" fill="#1483F8"></path>
<path d="M41.0062 53.5241L38.2091 50.727V45.7578H36.7001V51.0395C36.7001 51.2396 36.7796 51.4316 36.9211 51.573L39.7182 54.3701V60.2971C40.1861 60.4522 40.7203 60.6188 41.2272 60.7337V54.0576C41.2272 53.8575 41.1477 53.6656 41.0062 53.5241Z" fill="#1483F8"></path>
<path d="M45 38.108C45.8335 38.108 46.5091 37.4323 46.5091 36.5989C46.5091 35.7655 45.8335 35.0898 45 35.0898C44.1666 35.0898 43.491 35.7655 43.491 36.5989C43.491 37.4323 44.1666 38.108 45 38.108Z" fill="#1483F8"></path>
<path d="M37.4547 46.5103C38.2882 46.5103 38.9638 45.8347 38.9638 45.0012C38.9638 44.1678 38.2882 43.4922 37.4547 43.4922C36.6213 43.4922 35.9457 44.1678 35.9457 45.0012C35.9457 45.8347 36.6213 46.5103 37.4547 46.5103Z" fill="#1483F8"></path>
<path d="M52.5453 46.5494C53.3787 46.5494 54.0544 45.8737 54.0544 45.0403C54.0544 44.2069 53.3787 43.5312 52.5453 43.5312C51.7119 43.5312 51.0363 44.2069 51.0363 45.0403C51.0363 45.8737 51.7119 46.5494 52.5453 46.5494Z" fill="#1483F8"></path>
</svg>
