<svg width="90" height="90" viewBox="0 0 90 90" fill="none" xmlns="http://www.w3.org/2000/svg">
	<circle cx="45" cy="45" r="45" fill="#E2F3FF"></circle>
	<path d="M20 20H53.3333V70H20V20Z" fill="#1483F8"></path>
	<path d="M22.5001 32.5H39.1668V34.1667H22.5001V32.5Z" fill="white"></path>
	<path d="M54.3268 60.1575L58.3334 64.1642L64.1668 58.3308L59.9609 54.125" fill="#1483F8"></path>
	<path d="M48.3333 62.4974C56.1573 62.4974 62.5 56.1548 62.5 48.3307C62.5 40.5067 56.1573 34.1641 48.3333 34.1641C40.5093 34.1641 34.1666 40.5067 34.1666 48.3307C34.1666 56.1548 40.5093 62.4974 48.3333 62.4974Z" fill="#C7E2FF"></path>
	<path d="M48.3333 59.1706C54.3164 59.1706 59.1667 54.3203 59.1667 48.3372C59.1667 42.3542 54.3164 37.5039 48.3333 37.5039C42.3502 37.5039 37.5 42.3542 37.5 48.3372C37.5 54.3203 42.3502 59.1706 48.3333 59.1706Z" fill="white"></path>
	<path d="M59.1666 63.3307L64.97 69.1341C65.2435 69.4077 65.5683 69.6248 65.9257 69.773C66.2832 69.9211 66.6664 69.9974 67.0533 69.9974C67.8348 69.9974 68.5843 69.6869 69.1369 69.1343C69.6895 68.5817 70 67.8322 70 67.0507C69.9999 66.6638 69.9237 66.2806 69.7755 65.9232C69.6274 65.5657 69.4103 65.2409 69.1366 64.9674L63.3333 59.1641" fill="#1483F8"></path>
	<path d="M23.3334 23.332H50V29.9987H23.3334V23.332Z" fill="white"></path>
	<path d="M47.4999 26.6693V23.3359H23.3333V27.5026H46.6666C46.8876 27.5026 47.0996 27.4148 47.2558 27.2585C47.4121 27.1022 47.4999 26.8903 47.4999 26.6693Z" fill="#C7E2FF"></path>
	<path d="M22.4999 65.8398H50.8332V67.5065H22.4999V65.8398Z" fill="white"></path>
	<path d="M22.4999 62.5H35.8332V64.1667H22.4999V62.5Z" fill="white"></path>
	<path d="M22.4999 59.1719H35.8332V60.8385H22.4999V59.1719Z" fill="white"></path>
	<path d="M22.4999 35.8359H32.4999V37.5026H22.4999V35.8359Z" fill="white"></path>
	<path d="M22.4999 39.168H32.4999V40.8346H22.4999V39.168Z" fill="white"></path>
	<path d="M22.4999 42.5039H32.4999V44.1706H22.4999V42.5039Z" fill="white"></path>
	<path d="M41.6666 49.1693L46.6666 54.1693L55 45.8359L52.5 43.3359L46.6666 49.1693L44.1666 46.6693L41.6666 49.1693Z" fill="#1483F8"></path>
</svg>
