<svg width="90" height="90" viewBox="0 0 90 90" fill="none" xmlns="http://www.w3.org/2000/svg">
	<circle cx="45" cy="45" r="45" fill="#E2F3FF"></circle>
	<path d="M27.8125 26.25H55.9375V24.6875C55.9375 22.9617 57.3367 21.5625 59.0625 21.5625C60.7883 21.5625 62.1875 22.9617 62.1875 24.6875V63.75H34.0625V65.3125C34.0625 67.0383 32.6633 68.4375 30.9375 68.4375C29.2117 68.4375 27.8125 67.0383 27.8125 65.3125V26.25Z" fill="#64B5F3"></path>
	<path d="M37.1875 41.875C40.6393 41.875 43.4375 39.0768 43.4375 35.625C43.4375 32.1732 40.6393 29.375 37.1875 29.375C33.7357 29.375 30.9375 32.1732 30.9375 35.625C30.9375 39.0768 33.7357 41.875 37.1875 41.875Z" fill="#1483F8"></path>
	<path d="M59.0625 21.5625H24.6875C22.9617 21.5625 21.5625 22.9617 21.5625 24.6875V26.25H55.9375V24.6875C55.9375 22.9617 57.3367 21.5625 59.0625 21.5625Z" fill="#1483F8"></path>
	<path d="M30.9375 68.4375H65.3125C67.0383 68.4375 68.4375 67.0383 68.4375 65.3125V63.75H34.0625V65.3125C34.0625 67.0383 32.6633 68.4375 30.9375 68.4375Z" fill="#1483F8"></path>
	<path d="M37.1875 39.5313C36.9812 39.5313 36.782 39.45 36.6351 39.3023L33.5101 36.1773L34.6148 35.0727L37.0398 37.4977L42.7719 28.1836L44.1023 29.0031L37.8523 39.1594C37.7273 39.3633 37.5156 39.4977 37.2781 39.5258C37.2484 39.5297 37.2179 39.5313 37.1875 39.5313Z" fill="#FFF6E5"></path>
	<path d="M30.1562 44.2188H31.7188V45.7812H30.1562V44.2188Z" fill="white"></path>
	<path d="M33.2812 44.2188H59.8438V45.7812H33.2812V44.2188Z" fill="white"></path>
	<path d="M58.2812 47.3438H59.8438V48.9062H58.2812V47.3438Z" fill="white"></path>
	<path d="M30.1562 47.3438H56.7188V48.9062H30.1562V47.3438Z" fill="white"></path>
	<path d="M30.1562 50.4688H31.7188V52.0312H30.1562V50.4688Z" fill="white"></path>
	<path d="M33.2812 50.4688H59.8438V52.0312H33.2812V50.4688Z" fill="white"></path>
	<path d="M58.2812 53.5938H59.8438V55.1562H58.2812V53.5938Z" fill="white"></path>
	<path d="M30.1562 53.5938H56.7188V55.1562H30.1562V53.5938Z" fill="white"></path>
	<path d="M30.1562 56.7188H31.7188V58.2812H30.1562V56.7188Z" fill="white"></path>
	<path d="M33.2812 56.7188H59.8438V58.2812H33.2812V56.7188Z" fill="white"></path>
	<path d="M58.2812 59.8438H59.8438V61.4062H58.2812V59.8438Z" fill="white"></path>
	<path d="M30.1562 59.8438H56.7188V61.4062H30.1562V59.8438Z" fill="white"></path>
</svg>
