<svg width="90" height="90" viewBox="0 0 90 90" fill="none" xmlns="http://www.w3.org/2000/svg">
	<circle cx="45" cy="45" r="45" fill="#E2F3FF"></circle>
	<g clip-path="url(#clip0)">
		<path d="M67.08 35.8782L59.0231 33.7124C59.0155 33.6968 59.0088 33.6808 59 33.6655C58.9434 33.5674 58.8656 33.4863 58.7755 33.424L60.4007 22.3271C60.461 21.9155 60.1762 21.5331 59.7647 21.4728C59.3533 21.4131 58.9707 21.6973 58.9104 22.1088L57.4478 32.0958L53.6323 26.1755C53.4071 25.8258 52.941 25.7251 52.5913 25.9504C52.2417 26.1757 52.141 26.6418 52.3663 26.9914L56.4249 33.2891H34.085L33.5098 24.8121C33.4816 24.3972 33.1222 24.0826 32.7074 24.1118C32.2925 24.1399 31.9789 24.4991 32.0071 24.9142L32.5371 32.7261L24.5135 27.4365C24.1662 27.2077 23.6991 27.3035 23.4702 27.6508C23.2413 27.9981 23.3372 28.4651 23.6845 28.694L32.4399 34.4657L28.3816 43.4182C28.2099 43.797 28.3778 44.2434 28.7566 44.415C28.8574 44.4607 28.9631 44.4824 29.0671 44.4824C29.3536 44.4824 29.6275 44.318 29.7534 44.04L33.4375 35.9133L44.7925 55.5807L36.5551 61.4062C36.2156 61.6463 36.1349 62.1162 36.375 62.4558C36.6152 62.7954 37.0851 62.876 37.4247 62.6358L44.5361 57.6066L41.9245 67.59C41.8193 67.9924 42.0602 68.4039 42.4625 68.5092C42.5264 68.5259 42.5905 68.5339 42.6536 68.5339C42.9879 68.5339 43.2932 68.3097 43.3818 67.9712L46.1012 57.5758L51.004 64.668C51.1502 64.8795 51.3852 64.993 51.6241 64.993C51.7718 64.993 51.921 64.9496 52.0517 64.8592C52.3938 64.6227 52.4794 64.1536 52.243 63.8115L47.3063 56.6703L55.1603 57.2772C55.5733 57.3107 55.9371 56.9989 55.9691 56.5844C56.0011 56.1697 55.6909 55.8075 55.2762 55.7755L47.0373 55.1389L58.5767 35.1522L66.6893 37.3329C66.7547 37.3505 66.8205 37.3589 66.8853 37.3589C67.2175 37.3589 67.5217 37.1373 67.612 36.8012C67.7197 36.3994 67.4817 35.9861 67.08 35.8782ZM45.7872 54.2914L34.5311 34.7951H57.0434L45.7872 54.2914Z" fill="#1483F8"></path>
		<path d="M36.9899 64.2422C38.2152 64.2422 39.2086 63.2488 39.2086 62.0234C39.2086 60.7981 38.2152 59.8047 36.9899 59.8047C35.7645 59.8047 34.7711 60.7981 34.7711 62.0234C34.7711 63.2488 35.7645 64.2422 36.9899 64.2422Z" fill="#1483F8"></path>
		<path d="M37.7717 59.9453C37.8636 60.1888 37.9161 60.4516 37.9161 60.7272C37.9161 61.9526 36.9227 62.946 35.6973 62.946C35.4218 62.946 35.159 62.8934 34.9154 62.8016C35.2319 63.6405 36.0399 64.2384 36.9897 64.2384C38.2151 64.2384 39.2085 63.245 39.2085 62.0196C39.2086 61.0698 38.6106 60.2618 37.7717 59.9453Z" fill="#1483F8"></path>
		<path d="M42.653 70C43.8783 70 44.8717 69.0066 44.8717 67.7813C44.8717 66.5559 43.8783 65.5625 42.653 65.5625C41.4276 65.5625 40.4342 66.5559 40.4342 67.7813C40.4342 69.0066 41.4276 70 42.653 70Z" fill="#1483F8"></path>
		<path d="M43.4347 65.707C43.5266 65.9505 43.5792 66.2133 43.5792 66.489C43.5792 67.7144 42.5858 68.7077 41.3604 68.7077C41.0848 68.7077 40.822 68.6551 40.5785 68.5633C40.895 69.4022 41.703 70.0001 42.6528 70.0001C43.8782 70.0001 44.8716 69.0067 44.8716 67.7813C44.8717 66.8316 44.2738 66.0235 43.4347 65.707Z" fill="#1483F8"></path>
		<path d="M55.218 58.7461C56.4433 58.7461 57.4367 57.7527 57.4367 56.5273C57.4367 55.302 56.4433 54.3086 55.218 54.3086C53.9926 54.3086 52.9992 55.302 52.9992 56.5273C52.9992 57.7527 53.9926 58.7461 55.218 58.7461Z" fill="#1483F8"></path>
		<path d="M55.9999 54.4531C56.0918 54.6966 56.1443 54.9594 56.1443 55.2351C56.1443 56.4605 55.1509 57.4538 53.9256 57.4538C53.65 57.4538 53.3872 57.4012 53.1436 57.3094C53.4601 58.1483 54.2681 58.7462 55.2179 58.7462C56.4433 58.7462 57.4367 57.7528 57.4367 56.5274C57.4367 55.5777 56.8388 54.7696 55.9999 54.4531Z" fill="#1483F8"></path>
		<path d="M66.8845 38.8242C68.1099 38.8242 69.1033 37.8309 69.1033 36.6055C69.1033 35.3801 68.1099 34.3867 66.8845 34.3867C65.6591 34.3867 64.6658 35.3801 64.6658 36.6055C64.6658 37.8309 65.6591 38.8242 66.8845 38.8242Z" fill="#1483F8"></path>
		<path d="M67.6664 34.5312C67.7583 34.7747 67.8109 35.0375 67.8109 35.3132C67.8109 36.5386 66.8175 37.5319 65.5921 37.5319C65.3165 37.5319 65.0537 37.4793 64.8102 37.3875C65.1267 38.2265 65.9347 38.8243 66.8845 38.8243C68.1099 38.8243 69.1033 37.831 69.1033 36.6056C69.1033 35.6558 68.5054 34.8478 67.6664 34.5312Z" fill="#1483F8"></path>
		<path d="M59.6555 24.4375C60.8809 24.4375 61.8743 23.4441 61.8743 22.2188C61.8743 20.9934 60.8809 20 59.6555 20C58.4301 20 57.4368 20.9934 57.4368 22.2188C57.4368 23.4441 58.4301 24.4375 59.6555 24.4375Z" fill="#1483F8"></path>
		<path d="M60.4374 20.1445C60.5293 20.388 60.5819 20.6508 60.5819 20.9265C60.5819 22.1519 59.5885 23.1452 58.3631 23.1452C58.0875 23.1452 57.8247 23.0926 57.5812 23.0008C57.8977 23.8397 58.7057 24.4376 59.6555 24.4376C60.8809 24.4376 61.8742 23.4442 61.8742 22.2188C61.8742 21.2691 61.2764 20.461 60.4374 20.1445Z" fill="#1483F8"></path>
		<path d="M52.9993 28.8047C54.2246 28.8047 55.218 27.8113 55.218 26.5859C55.218 25.3606 54.2246 24.3672 52.9993 24.3672C51.7739 24.3672 50.7805 25.3606 50.7805 26.5859C50.7805 27.8113 51.7739 28.8047 52.9993 28.8047Z" fill="#1483F8"></path>
		<path d="M53.7812 24.5117C53.8731 24.7552 53.9256 25.018 53.9256 25.2937C53.9256 26.519 52.9323 27.5124 51.7069 27.5124C51.4313 27.5124 51.1685 27.4598 50.9249 27.368C51.2414 28.2069 52.0494 28.8048 52.9992 28.8048C54.2246 28.8048 55.218 27.8114 55.218 26.586C55.218 25.6363 54.6201 24.8282 53.7812 24.5117Z" fill="#1483F8"></path>
		<path d="M32.7583 27.082C33.9837 27.082 34.977 26.0887 34.977 24.8633C34.977 23.6379 33.9837 22.6445 32.7583 22.6445C31.5329 22.6445 30.5396 23.6379 30.5396 24.8633C30.5396 26.0887 31.5329 27.082 32.7583 27.082Z" fill="#1483F8"></path>
		<path d="M33.5403 22.7891C33.6322 23.0325 33.6847 23.2953 33.6847 23.571C33.6847 24.7964 32.6913 25.7897 31.466 25.7897C31.1904 25.7897 30.9276 25.7371 30.684 25.6453C31.0005 26.4843 31.8085 27.0821 32.7583 27.0821C33.9837 27.0821 34.9771 26.0888 34.9771 24.8634C34.9771 23.9137 34.3792 23.1056 33.5403 22.7891Z" fill="#1483F8"></path>
		<path d="M29.0675 45.9453C30.2929 45.9453 31.2863 44.952 31.2863 43.7266C31.2863 42.5012 30.2929 41.5078 29.0675 41.5078C27.8421 41.5078 26.8488 42.5012 26.8488 43.7266C26.8488 44.952 27.8421 45.9453 29.0675 45.9453Z" fill="#1483F8"></path>
		<path d="M29.8493 41.6562C29.9412 41.8997 29.9937 42.1625 29.9937 42.4382C29.9937 43.6636 29.0004 44.6569 27.775 44.6569C27.4994 44.6569 27.2366 44.6043 26.993 44.5125C27.3095 45.3515 28.1176 45.9493 29.0674 45.9493C30.2927 45.9493 31.2861 44.956 31.2861 43.7306C31.2862 42.7809 30.6884 41.9729 29.8493 41.6562Z" fill="#1483F8"></path>
		<path d="M33.3913 37.3928C35.1599 37.3928 36.5936 35.9591 36.5936 34.1905C36.5936 32.422 35.1599 30.9883 33.3913 30.9883C31.6228 30.9883 30.1891 32.422 30.1891 34.1905C30.1891 35.9591 31.6228 37.3928 33.3913 37.3928Z" fill="#1483F8"></path>
		<path d="M34.7766 31.3047C34.9781 31.7239 35.0911 32.1938 35.0911 32.69C35.0911 34.4586 33.6574 35.8923 31.8888 35.8923C31.3925 35.8923 30.9227 35.7793 30.5035 35.5778C31.0201 36.6527 32.119 37.3947 33.3913 37.3947C35.1598 37.3947 36.5935 35.961 36.5935 34.1925C36.5935 32.9202 35.8515 31.8213 34.7766 31.3047Z" fill="#1483F8"></path>
		<path d="M57.902 37.3928C59.6706 37.3928 61.1043 35.9591 61.1043 34.1905C61.1043 32.422 59.6706 30.9883 57.902 30.9883C56.1335 30.9883 54.6998 32.422 54.6998 34.1905C54.6998 35.9591 56.1335 37.3928 57.902 37.3928Z" fill="#1483F8"></path>
		<path d="M59.2874 31.3047C59.4888 31.7239 59.6018 32.1938 59.6018 32.69C59.6018 34.4586 58.1681 35.8923 56.3996 35.8923C55.9033 35.8923 55.4335 35.7793 55.0142 35.5778C55.5308 36.6527 56.6297 37.3947 57.902 37.3947C59.6706 37.3947 61.1043 35.961 61.1043 34.1925C61.1043 32.9202 60.3623 31.8213 59.2874 31.3047Z" fill="#1483F8"></path>
		<path d="M45.7872 59.0021C47.5558 59.0021 48.9895 57.5685 48.9895 55.7999C48.9895 54.0313 47.5558 52.5977 45.7872 52.5977C44.0187 52.5977 42.585 54.0313 42.585 55.7999C42.585 57.5685 44.0187 59.0021 45.7872 59.0021Z" fill="#1483F8"></path>
		<path d="M47.1726 52.9141C47.374 53.3333 47.487 53.8031 47.487 54.2994C47.487 56.068 46.0533 57.5017 44.2848 57.5017C43.7885 57.5017 43.3187 57.3887 42.8994 57.1872C43.416 58.2621 44.5149 59.0041 45.7872 59.0041C47.5558 59.0041 48.9894 57.5704 48.9894 55.8019C48.9894 54.5296 48.2475 53.4307 47.1726 52.9141Z" fill="#1483F8"></path>
		<path d="M51.6232 67.4436C53.3918 67.4436 54.8254 66.0099 54.8254 64.2413C54.8254 62.4728 53.3918 61.0391 51.6232 61.0391C49.8547 61.0391 48.421 62.4728 48.421 64.2413C48.421 66.0099 49.8547 67.4436 51.6232 67.4436Z" fill="#1483F8"></path>
		<path d="M53.0086 61.3555C53.21 61.7747 53.323 62.2445 53.323 62.7408C53.323 64.5094 51.8893 65.9431 50.1208 65.9431C49.6245 65.9431 49.1547 65.8301 48.7354 65.6286C49.252 66.7035 50.3509 67.4455 51.6232 67.4455C53.3918 67.4455 54.8255 66.0118 54.8255 64.2433C54.8255 62.9709 54.0834 61.872 53.0086 61.3555Z" fill="#1483F8"></path>
		<path d="M24.099 31.2678C25.8676 31.2678 27.3013 29.8341 27.3013 28.0655C27.3013 26.297 25.8676 24.8633 24.099 24.8633C22.3305 24.8633 20.8968 26.297 20.8968 28.0655C20.8968 29.8341 22.3305 31.2678 24.099 31.2678Z" fill="#1483F8"></path>
		<path d="M25.4844 25.1797C25.6859 25.5989 25.7988 26.0687 25.7988 26.565C25.7988 28.3336 24.3651 29.7673 22.5966 29.7673C22.1003 29.7673 21.6305 29.6543 21.2112 29.4528C21.7278 30.5277 22.8268 31.2697 24.099 31.2697C25.8676 31.2697 27.3013 29.836 27.3013 28.0675C27.3013 26.7952 26.5592 25.6963 25.4844 25.1797Z" fill="#1483F8"></path>
	</g>
</svg>
