<svg width="90" height="90" viewBox="0 0 90 90" fill="none" xmlns="http://www.w3.org/2000/svg">
	<circle cx="45" cy="45" r="45" fill="#E2F3FF"></circle>
	<path d="M60.8334 56.668C63.2645 56.668 65.5961 57.6337 67.3152 59.3528C69.0343 61.0719 70 63.4035 70 65.8346V70.0013H51.6667V65.8346C51.6667 63.4035 52.6325 61.0719 54.3515 59.3528C56.0706 57.6337 58.4022 56.668 60.8334 56.668Z" fill="#1483F8"></path>
	<path d="M60.8333 56.668C64.9754 56.668 68.3333 53.3101 68.3333 49.168C68.3333 45.0258 64.9754 41.668 60.8333 41.668C56.6912 41.668 53.3333 45.0258 53.3333 49.168C53.3333 53.3101 56.6912 56.668 60.8333 56.668Z" fill="#C7E2FF"></path>
	<path d="M65.9441 58.2238L60.8333 63.3346L55.7224 58.2238C57.2326 57.2069 59.0126 56.665 60.8333 56.668C62.654 56.665 64.4339 57.2069 65.9441 58.2238Z" fill="#C7E2FF"></path>
	<path d="M67.9067 46.6666H62.0833C61.7518 46.6666 61.4339 46.7983 61.1994 47.0327C60.965 47.2671 60.8333 47.5851 60.8333 47.9166C60.8333 48.2481 60.7016 48.5661 60.4672 48.8005C60.2328 49.0349 59.9148 49.1666 59.5833 49.1666H53.3333C53.3318 47.3962 53.9566 45.6824 55.0971 44.3284C56.2376 42.9744 57.8204 42.0675 59.5652 41.7681C61.3101 41.4688 63.1046 41.7964 64.6312 42.6929C66.1578 43.5893 67.318 44.997 67.9067 46.6666Z" fill="#1D2F40"></path>
	<path d="M29.1667 56.668C31.5978 56.668 33.9294 57.6337 35.6485 59.3528C37.3676 61.0719 38.3333 63.4035 38.3333 65.8346V70.0013H20V65.8346C20 63.4035 20.9658 61.0719 22.6849 59.3528C24.4039 57.6337 26.7355 56.668 29.1667 56.668Z" fill="#1483F8"></path>
	<path d="M29.1667 56.668C33.3088 56.668 36.6667 53.3101 36.6667 49.168C36.6667 45.0258 33.3088 41.668 29.1667 41.668C25.0246 41.668 21.6667 45.0258 21.6667 49.168C21.6667 53.3101 25.0246 56.668 29.1667 56.668Z" fill="#C7E2FF"></path>
	<path d="M34.2775 58.2238L29.1667 63.3346L24.0558 58.2238C25.566 57.2069 27.346 56.665 29.1667 56.668C30.9873 56.665 32.7673 57.2069 34.2775 58.2238Z" fill="#C7E2FF"></path>
	<path d="M36.24 46.6666H30.4167C30.0852 46.6666 29.7672 46.7983 29.5328 47.0327C29.2984 47.2671 29.1667 47.5851 29.1667 47.9166C29.1667 48.2481 29.035 48.5661 28.8006 48.8005C28.5662 49.0349 28.2482 49.1666 27.9167 49.1666H21.6667C21.6652 47.3962 22.29 45.6824 23.4305 44.3284C24.571 42.9744 26.1537 42.0675 27.8986 41.7681C29.6435 41.4688 31.438 41.7964 32.9646 42.6929C34.4912 43.5893 35.6514 44.997 36.24 46.6666Z" fill="#1D2F40"></path>
	<path d="M55.8333 32.5V29.1667L53.9292 28.7858C53.7013 27.7883 53.3068 26.8364 52.7625 25.97L53.8458 24.3517L51.4817 21.9942L49.8633 23.0775C48.9969 22.5332 48.045 22.1387 47.0475 21.9108L46.6667 20H43.3333L42.9525 21.9042C41.955 22.1321 41.003 22.5265 40.1367 23.0708L38.5183 21.9942L36.1608 24.3517L37.24 25.97C36.6956 26.8364 36.3012 27.7883 36.0733 28.7858L34.1667 29.1667V32.5L36.0708 32.8808C36.2987 33.8783 36.6931 34.8303 37.2375 35.6967L36.1583 37.315L38.5158 39.6725L40.1342 38.5933C41.0005 39.1377 41.9525 39.5321 42.95 39.76L43.3333 41.6667H46.6667L47.0475 39.7625C48.045 39.5346 48.9969 39.1402 49.8633 38.5958L51.4817 39.675L53.8392 37.3175L52.7558 35.6992C53.3002 34.8328 53.6946 33.8808 53.9225 32.8833L55.8333 32.5Z" fill="#1483F8"></path>
	<path d="M45 35.8359C47.7614 35.8359 50 33.5974 50 30.8359C50 28.0745 47.7614 25.8359 45 25.8359C42.2386 25.8359 40 28.0745 40 30.8359C40 33.5974 42.2386 35.8359 45 35.8359Z" fill="#F2F2F2"></path>
	<path d="M46.6667 45L50.8334 49.1667L46.6667 53.3333V50.8333H40.8334V47.5H46.6667V45Z" fill="#1483F8"></path>
	<path d="M44.1667 55L40 59.1667L44.1667 63.3333V60.8333H50V57.5H44.1667V55Z" fill="#1483F8"></path>
</svg>
