<svg width="90" height="90" viewBox="0 0 90 90" fill="none" xmlns="http://www.w3.org/2000/svg">
	<circle cx="45" cy="45" r="45" fill="#E2F3FF"></circle>
	<g clip-path="url(#clip0)">
		<path d="M20 37.2422H70V70.0008H20V37.2422Z" fill="#C7E2FF"></path>
		<path d="M70 37.2414H20L45 20L70 37.2414Z" fill="#1483F8"></path>
		<path d="M23.4483 40.6914H66.5517V70.0017H23.4483V40.6914Z" fill="#1483F8"></path>
		<path opacity="0.2" d="M63.1035 40.6914H66.5517V70.0017H63.1035V40.6914Z" fill="#1D2F40"></path>
		<path d="M45 51.8984H63.1034V66.5536H45V51.8984Z" fill="#64B5F3"></path>
		<path d="M63.1034 51.899H45V46.7266H57.069L63.1034 51.899Z" fill="#64B5F3"></path>
		<path opacity="0.1" d="M59.6552 51.8984H63.1035V66.5536H59.6552V51.8984Z" fill="#3F6C9B"></path>
		<path d="M45 30.3443C46.4283 30.3443 47.5862 29.1864 47.5862 27.7581C47.5862 26.3298 46.4283 25.1719 45 25.1719C43.5717 25.1719 42.4138 26.3298 42.4138 27.7581C42.4138 29.1864 43.5717 30.3443 45 30.3443Z" fill="#C7E2FF"></path>
		<path d="M45 46.7266V51.899H26.8966L32.9311 46.7266H45Z" fill="#64B5F3"></path>
		<path d="M26.8965 51.8984H45V66.5536H26.8965V51.8984Z" fill="#64B5F3"></path>
		<path opacity="0.1" d="M41.5517 51.8984H45V66.5536H41.5517V51.8984Z" fill="#3F6C9B"></path>
		<path d="M45 24.3086C44.318 24.3086 43.6513 24.5108 43.0843 24.8897C42.5172 25.2686 42.0752 25.8072 41.8142 26.4373C41.5532 27.0674 41.4849 27.7607 41.618 28.4296C41.751 29.0985 42.0795 29.7129 42.5617 30.1952C43.044 30.6774 43.6584 31.0058 44.3273 31.1389C44.9962 31.2719 45.6895 31.2037 46.3196 30.9427C46.9497 30.6817 47.4883 30.2397 47.8672 29.6726C48.2461 29.1056 48.4483 28.4389 48.4483 27.7569C48.4483 26.8423 48.085 25.9652 47.4383 25.3186C46.7916 24.6719 45.9146 24.3086 45 24.3086ZM45 29.481C44.659 29.481 44.3257 29.3799 44.0421 29.1904C43.7586 29.001 43.5376 28.7317 43.4071 28.4167C43.2766 28.1016 43.2425 27.755 43.309 27.4205C43.3755 27.0861 43.5397 26.7788 43.7809 26.5377C44.022 26.2966 44.3292 26.1324 44.6637 26.0659C44.9981 25.9993 45.3448 26.0335 45.6598 26.164C45.9749 26.2945 46.2441 26.5155 46.4336 26.799C46.623 27.0825 46.7242 27.4159 46.7242 27.7569C46.7242 28.2141 46.5425 28.6527 46.2192 28.976C45.8958 29.2994 45.4573 29.481 45 29.481Z" fill="white"></path>
		<path d="M63.6552 51.2512L63.6638 51.2426L57.6293 46.0702C57.4724 45.938 57.2742 45.8648 57.069 45.8633H32.931C32.7258 45.8648 32.5276 45.938 32.3707 46.0702L26.3362 51.2426L26.3448 51.2512C26.2483 51.3292 26.1704 51.4277 26.1167 51.5395C26.0631 51.6513 26.035 51.7737 26.0345 51.8978V66.5529C26.0345 66.7816 26.1253 67.0008 26.287 67.1625C26.4486 67.3242 26.6679 67.415 26.8966 67.415H63.1034C63.3321 67.415 63.5514 67.3242 63.713 67.1625C63.8747 67.0008 63.9655 66.7816 63.9655 66.5529V51.8978C63.965 51.7737 63.9369 51.6513 63.8833 51.5395C63.8296 51.4277 63.7517 51.3292 63.6552 51.2512ZM60.7759 51.0357H49.1983L56.9138 47.7254L60.7759 51.0357ZM60.6724 52.7598L54.0517 58.1133L47.431 52.7598H60.6724ZM45.8621 47.5874H52.8707L45.8621 50.5874V47.5874ZM33.0862 47.7254L40.8017 51.0357H29.2241L33.0862 47.7254ZM42.569 52.7598L35.9483 58.1133L29.3276 52.7598H42.569ZM27.7586 53.7081L34.5776 59.2254L27.7586 64.7426V53.7081ZM29.3276 65.6909L35.9483 60.3374L42.569 65.6909H29.3276ZM44.1379 64.7426L37.319 59.2254L44.1379 53.7081V64.7426ZM44.1379 50.5874L37.1293 47.5874H44.1379V50.5874ZM45.8621 53.7081L52.681 59.2254L45.8621 64.7426V53.7081ZM47.431 65.6909L54.0517 60.3374L60.6724 65.6909H47.431ZM62.2414 64.7426L55.4224 59.2254L62.2414 53.7081V64.7426Z" fill="white"></path>
		<path d="M41.5517 32.9297H48.4483V34.6538H41.5517V32.9297Z" fill="white"></path>
		<path d="M50.1724 32.9297H51.8966V34.6538H50.1724V32.9297Z" fill="white"></path>
		<path d="M38.1035 32.9297H39.8276V34.6538H38.1035V32.9297Z" fill="white"></path>
	</g>
</svg>
