<svg width="90" height="90" viewBox="0 0 90 90" fill="none" xmlns="http://www.w3.org/2000/svg">
	<circle cx="45" cy="45" r="45" fill="#E2F3FF"></circle>
	<g clip-path="url(#clip0)">
		<path d="M35.5859 20C34.777 20 34.1211 20.6559 34.1211 21.4648V24.6028C34.1211 25.4118 34.777 26.0677 35.5859 26.0677C36.3949 26.0677 37.0508 25.4118 37.0508 24.6028V21.4648C37.0508 20.6559 36.3949 20 35.5859 20Z" fill="#1483F8"></path>
		<path d="M24.6028 34.1211H21.4648C20.6559 34.1211 20 34.777 20 35.5859C20 36.3949 20.6559 37.0508 21.4648 37.0508H24.6028C25.4118 37.0508 26.0677 36.3949 26.0677 35.5859C26.0677 34.777 25.4118 34.1211 24.6028 34.1211Z" fill="#1483F8"></path>
		<path d="M26.6364 24.5618C26.0643 23.9897 25.1368 23.9899 24.5648 24.562C23.9929 25.134 23.993 26.0616 24.565 26.6335L27.8937 29.9615C28.4659 30.5334 29.3935 30.5332 29.9652 29.9612C30.5372 29.3891 30.5371 28.4616 29.965 27.8896L26.6364 24.5618Z" fill="#1483F8"></path>
		<path d="M54.4141 63.9297C53.6051 63.9297 52.9493 64.5855 52.9493 65.3945V68.5325C52.9493 69.3415 53.6051 69.9974 54.4141 69.9974C55.2231 69.9974 55.879 69.3415 55.879 68.5325V65.3945C55.879 64.5855 55.2231 63.9297 54.4141 63.9297Z" fill="#1483F8"></path>
		<path d="M68.5351 52.9492H65.3972C64.5882 52.9492 63.9323 53.6051 63.9323 54.4141C63.9323 55.223 64.5882 55.8789 65.3972 55.8789H68.5351C69.3441 55.8789 70 55.223 70 54.4141C70 53.6051 69.3441 52.9492 68.5351 52.9492Z" fill="#1483F8"></path>
		<path d="M62.1062 60.0343C61.5341 59.4625 60.6066 59.4624 60.0346 60.0346C59.4627 60.6067 59.4628 61.5342 60.0348 62.1063L63.3635 65.4341C63.9357 66.0061 64.8632 66.0058 65.4351 65.4338C66.0071 64.8617 66.007 63.9342 65.4349 63.3621L62.1062 60.0343Z" fill="#1483F8"></path>
		<path d="M50.1006 23.4119L47.7311 25.7814C43.1818 30.3315 43.1818 37.719 47.7311 42.2683C52.2811 46.8183 59.6687 46.8183 64.2187 42.2683L66.5874 39.8995C71.1374 35.3495 71.1374 27.9619 66.5874 23.4119C62.0383 18.8627 54.6507 18.8627 50.1006 23.4119ZM61.8733 35.2095L60.6887 36.394C58.7345 38.349 55.5603 38.349 53.6053 36.394C51.6511 34.4399 51.5663 31.3505 53.5204 29.3955L54.7899 28.1261C56.7448 26.1719 59.9191 26.1719 61.8733 28.1261C63.8283 30.0812 63.8282 33.2553 61.8733 35.2095Z" fill="#C7E2FF"></path>
		<path d="M66.5875 23.4141L61.8732 28.1282C63.8282 30.0832 63.8282 33.2574 61.8732 35.2116L60.6886 36.3962C58.7344 38.3512 55.5602 38.3512 53.6052 36.3962L47.731 42.2704C52.281 46.8204 59.6686 46.8204 64.2186 42.2704L66.5874 39.9017C71.1375 35.3517 71.1375 27.9641 66.5875 23.4141Z" fill="#1483F8"></path>
		<path d="M54.7898 30.4939C50.2406 25.9447 42.8531 25.9447 38.303 30.4939C36.2155 32.5814 35.0863 35.2665 34.9138 37.9998C34.9138 38.8088 35.5696 39.4646 36.3786 39.4646H40.1424C40.9514 39.4646 41.6072 38.8088 41.6072 37.9998C41.7614 36.9781 42.2313 35.9948 43.0172 35.2081C44.9723 33.2539 48.1456 33.2539 50.1006 35.2081L52.4456 37.5531C54.3998 39.5073 57.5739 39.5073 59.529 37.5531L60.6891 36.3932L54.7898 30.4939Z" fill="#1483F8"></path>
		<path d="M52.4457 37.5537C54.3999 39.5079 57.5741 39.5079 59.5291 37.5537L60.6892 36.3936L57.1471 32.8516L52.4453 37.5532L52.4457 37.5537Z" fill="#C7E2FF"></path>
		<path d="M39.8993 66.5892L42.2689 64.2196C46.8181 59.6695 46.8181 52.282 42.2689 47.7328C37.7189 43.1828 30.3313 43.1828 25.7813 47.7328L23.4125 50.1016C18.8625 54.6516 18.8625 62.0392 23.4125 66.5892C27.9617 71.1384 35.3493 71.1384 39.8993 66.5892ZM28.1268 54.7916L29.3113 53.607C31.2655 51.6521 34.4397 51.6521 36.3947 53.607C38.3489 55.5611 38.4337 58.6506 36.4796 60.6056L35.2102 61.875C33.2552 63.8292 30.081 63.8292 28.1268 61.875C26.1717 59.9199 26.1718 56.7458 28.1268 54.7916Z" fill="#C7E2FF"></path>
		<path d="M42.2689 47.7305L36.3947 53.6047C38.3489 55.5588 38.4338 58.6482 36.4796 60.6032L35.2101 61.8726C33.2552 63.8268 30.0809 63.8268 28.1267 61.8726L23.4125 66.5868C27.9617 71.136 35.3493 71.136 39.8993 66.5868L42.2688 64.2173C46.818 59.6672 46.818 52.2797 42.2689 47.7305Z" fill="#1483F8"></path>
		<path d="M35.2101 59.5058C39.7593 64.0551 47.1468 64.0551 51.6969 59.5058C53.7844 57.4184 54.9136 54.7333 55.0862 52C55.0862 51.191 54.4303 50.5352 53.6213 50.5352H49.8576C49.0486 50.5352 48.3927 51.191 48.3927 52C48.2385 53.0217 47.7686 54.005 46.9828 54.7917C45.0277 56.7459 41.8543 56.7459 39.8994 54.7917L37.5543 52.4467C35.6001 50.4925 32.426 50.4925 30.4709 52.4467L29.3108 53.6066L35.2101 59.5058Z" fill="#1483F8"></path>
		<path d="M35.2102 59.5058C39.7594 64.0551 47.1469 64.0551 51.697 59.5058C53.7845 57.4184 54.9137 54.7333 55.0862 52C55.0862 51.191 54.4304 50.5352 53.6214 50.5352H49.8576C49.0486 50.5352 48.3928 51.191 48.3928 52C48.2386 53.0217 47.7687 54.005 46.9828 54.7917C45.0277 56.7459 41.8544 56.7459 39.8994 54.7917L37.5548 52.4471L32.853 57.1488L35.2102 59.5058Z" fill="#C7E2FF"></path>
	</g>
</svg>
