<svg width="90" height="90" viewBox="0 0 90 90" fill="none" xmlns="http://www.w3.org/2000/svg">
	<circle opacity="0.1" cx="45" cy="45" r="45" fill="#E2F3FF"></circle>
	<circle opacity="0.3" cx="45" cy="45" r="44.5" stroke="#A1B0BE"></circle>
	<path d="M20 69.9653C20 70.4089 20.3629 70.7718 20.8065 70.7718H69.1936C69.6371 70.7718 70 70.4089 70 69.9653V30.4492H20V69.9653Z" fill="#1483F8"></path>
	<path d="M55.4967 44.5776C55.0985 44.1795 54.4734 44.1208 54.008 44.4379C52.2545 45.6331 43.4593 51.6431 42.5141 52.5883C41.1434 53.9591 41.1434 56.1894 42.5141 57.5602C43.1995 58.2455 44.0998 58.5883 45.0001 58.5883C45.9003 58.5883 46.8006 58.2455 47.486 57.5602C48.4312 56.615 54.4412 47.8198 55.6364 46.0664C55.9535 45.6009 55.8948 44.9759 55.4967 44.5776ZM45.8286 55.9029C45.3718 56.3599 44.6283 56.3599 44.1714 55.9029C43.7145 55.446 43.7145 54.7028 44.1712 54.2459C44.5385 53.8829 47.0356 52.102 50.1079 49.9665C47.9724 53.0388 46.1915 55.5358 45.8286 55.9029Z" fill="white"></path>
	<path d="M35.4042 60.5248L33.9575 61.2305C32.8989 59.3414 32.3438 57.2328 32.3438 55.0742C32.3438 53.4927 32.6354 51.978 33.1676 50.5811L34.8253 51.3762C34.9887 51.4546 35.1613 51.4917 35.3313 51.4917C35.768 51.4917 36.1872 51.2465 36.3887 50.8264C36.6686 50.2429 36.4225 49.5429 35.8389 49.263L34.2022 48.4779C36.2364 45.1603 39.756 42.8473 43.8282 42.4718V44.2343C43.8282 44.8815 44.3528 45.4062 45.0001 45.4062C45.6473 45.4062 46.1719 44.8815 46.1719 44.2343V42.4709C47.5681 42.598 48.919 42.9535 50.2015 43.5324C50.7912 43.7987 51.4854 43.5363 51.7517 42.9465C52.018 42.3566 51.7557 41.6626 51.1658 41.3963C49.2224 40.5191 47.148 40.0742 45 40.0742C40.9934 40.0742 37.2265 41.6345 34.3934 44.4676C31.5603 47.3008 30 51.0676 30 55.0742C30 58.035 30.8788 60.9145 32.5414 63.4013C32.7653 63.7361 33.1356 63.9219 33.5163 63.9219C33.6894 63.9219 33.8647 63.8836 34.0294 63.8032L36.4318 62.6313C37.0135 62.3476 37.255 61.646 36.9713 61.0643C36.6875 60.4827 35.9859 60.2412 35.4042 60.5248Z" fill="white"></path>
	<path d="M58.6779 48.9088C58.4116 48.319 57.7177 48.0565 57.1276 48.3229C56.5378 48.5892 56.2754 49.2832 56.5417 49.8731C57.2813 51.5113 57.6562 53.2613 57.6562 55.0745C57.6562 57.2363 57.0993 59.3483 56.0376 61.2396L54.5272 60.5204C53.943 60.2422 53.2437 60.4902 52.9654 61.0746C52.6871 61.6589 52.9352 62.3582 53.5196 62.6365L55.9805 63.8084C56.1424 63.8854 56.314 63.9223 56.4837 63.9223C56.8646 63.9223 57.2349 63.7363 57.4586 63.4016C59.1212 60.9148 60 58.0353 60 55.0745C60 52.9265 59.5552 50.8521 58.6779 48.9088Z" fill="white"></path>
	<path d="M70 30.5V34H20V30.5C20 28.5593 20.7177 27 21.6129 27H68.3871C69.2823 27 70 28.5593 70 30.5Z" fill="#3F6C9B"></path>
	<path d="M23.5037 29H23.4888C22.6628 29 22 29.6705 22 30.5C22 31.328 22.6778 32 23.5037 32C24.3312 32 25 31.328 25 30.5C25 29.6705 24.3312 29 23.5037 29Z" fill="white"></path>
	<path d="M28.8371 29H28.8221C27.9947 29 27.3333 29.6705 27.3333 30.5C27.3333 31.328 28.0096 32 28.8371 32C29.6645 32 30.3333 31.328 30.3333 30.5C30.3333 29.6705 29.6645 29 28.8371 29Z" fill="white"></path>
	<path d="M34.1704 29H34.1554C33.3295 29 32.6667 29.6705 32.6667 30.5C32.6667 31.328 33.3445 32 34.1704 32C34.9978 32 35.6667 31.328 35.6667 30.5C35.6667 29.6705 34.9978 29 34.1704 29Z" fill="white"></path>
</svg>
