<svg width="90" height="90" viewBox="0 0 90 90" fill="none" xmlns="http://www.w3.org/2000/svg">
	<circle opacity="0.2" cx="45" cy="45" r="45" fill="#E2F3FF"></circle>
	<circle opacity="0.3" cx="45" cy="45" r="44.5" stroke="#A1B0BE"></circle>
	<g clip-path="url(#clip0)">
		<path opacity="0.5" d="M63.3907 69.984C65.6008 69.0898 66.4306 67.4575 66.3545 65.0892C66.2334 61.3796 66.3232 57.6797 66.3213 53.9759C66.3213 52.0489 65.4837 50.6216 63.7831 49.6942C63.0138 49.2745 62.2485 48.843 61.4988 48.392C60.0149 47.4997 59.2632 46.1955 59.2652 44.4461C59.2652 37.8494 59.2619 31.2528 59.2554 24.6562C59.2554 22.0946 58.408 20.9055 56.0593 20.0836C57.5066 19.9306 58.9685 19.9878 60.3995 20.2534C61.5319 20.4799 63.2813 22.036 63.2559 23.883C63.1896 28.7641 63.2403 33.6296 63.2423 38.5029C63.2423 39.2838 63.2423 40.0648 63.2325 40.8458C63.2039 42.7357 64.0011 44.161 65.6243 45.1216C66.3525 45.5492 67.0847 45.969 67.8305 46.3673C69.5096 47.2615 70.3531 48.6809 70.3687 50.5533C70.398 55.655 70.4116 60.7568 70.3823 65.8565C70.3687 68.4435 68.7228 69.9937 66.1221 70.0015C65.2103 69.9976 64.3005 69.984 63.3907 69.984Z" fill="#3F6C9B"></path>
		<path d="M41.9294 38.2048H32.2707C31.8548 38.2048 31.3569 38.2848 31.2339 37.7225C31.0602 36.9415 31.56 36.7932 32.2102 36.7951C34.5199 36.7951 36.8277 36.7951 39.1374 36.7951C43.3026 36.7951 47.4678 36.7951 51.633 36.7951C52.043 36.7951 52.5487 36.6994 52.6678 37.2695C52.8338 38.0505 52.3515 38.2048 51.6916 38.2028C48.8937 38.1911 46.0978 38.2028 43.2961 38.2028L41.9294 38.2048Z" fill="#1483F8"></path>
		<path d="M42.0369 41.4936C40.3129 41.4936 38.5908 41.4936 36.8668 41.4936C36.3045 41.4936 35.6797 41.5209 35.6954 40.7126C35.6954 39.9629 36.2811 39.9688 36.82 39.9688C40.2354 39.9688 43.6496 39.9688 47.0625 39.9688C47.6482 39.9688 48.2905 40.0273 48.2691 40.7614C48.2476 41.4956 47.5955 41.5131 47.0175 41.5112C45.3554 41.4969 43.6951 41.491 42.0369 41.4936Z" fill="#1483F8"></path>
		<path d="M66.3584 65.0858C66.2373 61.3761 66.3271 57.6762 66.3252 53.9725C66.3252 52.0454 65.4876 50.6182 63.787 49.6908C63.0178 49.271 62.2524 48.8395 61.5027 48.3885C60.0188 47.4962 59.2671 46.192 59.2691 44.4426C59.2691 37.846 59.2658 31.2493 59.2593 24.6527C59.2593 22.0911 58.412 20.9021 56.0632 20.0801C55.9337 20.0615 55.8034 20.0498 55.6727 20.0449C46.2476 20.0397 36.8212 20.0365 27.3936 20.0352C27.1015 20.0344 26.8106 20.0725 26.5286 20.1484C24.6836 20.6521 23.6 22.1477 23.6 24.2505C23.6 33.22 23.6 42.1901 23.6 51.161C23.6 56.1026 23.6 61.0422 23.6156 65.9819C23.6156 68.237 25.2771 69.9961 27.4033 69.9981C39.3991 69.9981 51.3942 69.9922 63.3887 69.9805C65.6008 69.0863 66.4306 67.4541 66.3584 65.0858ZM47.0136 41.4964C45.354 41.4964 43.6951 41.4964 42.0369 41.4964C40.3129 41.4964 38.5908 41.4964 36.8668 41.4964C36.3045 41.4964 35.6797 41.5237 35.6953 40.7154C35.6953 39.9657 36.2811 39.9715 36.8199 39.9715C40.2354 39.9715 43.6496 39.9715 47.0624 39.9715C47.6482 39.9715 48.2905 40.0301 48.269 40.7642C48.2476 41.4983 47.5915 41.4983 47.0136 41.4964ZM51.6858 38.2065C48.888 38.1948 46.0921 38.2065 43.2903 38.2065H32.2708C31.8549 38.2065 31.357 38.2866 31.234 37.7243C31.0602 36.9433 31.5601 36.7949 32.2102 36.7969C34.52 36.7969 36.8277 36.7969 39.1375 36.7969C43.3027 36.7969 47.4679 36.7969 51.6331 36.7969C52.0431 36.7969 52.5488 36.7012 52.6679 37.2713C52.8202 38.0562 52.3379 38.2085 51.6858 38.2065Z" fill="#1483F8"></path>
		<path d="M42.0723 42.9945H29.0453C28.4844 42.9945 27.8129 43.1072 27.647 42.3151C27.4126 41.2148 28.0867 41.0058 28.9636 41.0085C32.0788 41.0085 35.1914 41.0085 38.3066 41.0085C43.9244 41.0085 49.5421 41.0085 55.1599 41.0085C55.7129 41.0085 56.3949 40.8737 56.5556 41.6769C56.7794 42.7772 56.129 42.9945 55.2389 42.9917C51.4654 42.9752 47.6944 42.9917 43.9156 42.9917L42.0723 42.9945Z" fill="#F7F9FA"></path>
		<path d="M41.6781 47.9771C39.2102 47.9771 36.7451 47.9771 34.2773 47.9771C33.4724 47.9771 32.578 48.0125 32.6004 46.9645C32.6004 45.9924 33.4388 46 34.2102 46C39.0993 46 43.9866 46 48.872 46C49.7105 46 50.63 46.0759 50.5992 47.0278C50.5685 47.9796 49.635 48.0024 48.8077 47.9999C46.4284 47.9813 44.0518 47.9737 41.6781 47.9771Z" fill="#F7F9FA"></path>
		<path d="M31.5283 36.7559L31.1888 35.4972H28.9738L28.6261 36.7559H26.6L28.8287 30H31.2929L33.5544 36.7559H31.5283ZM30.811 34.0073L30.518 32.9046C30.4496 32.6599 30.3647 32.3425 30.2661 31.9552C30.1676 31.5679 30.1046 31.2856 30.0717 31.1161C30.0444 31.2748 29.9896 31.5303 29.9075 31.8907C29.8253 32.2511 29.6337 32.9665 29.3599 34.0073H30.811Z" fill="white"></path>
		<path d="M40.1093 30.0312V34.0654C40.1093 34.9449 39.8574 35.6253 39.3481 36.1067C38.8388 36.5881 38.1105 36.8329 37.1577 36.8329C36.2049 36.8329 35.5149 36.5962 35.0057 36.1282C34.4964 35.6603 34.2664 34.996 34.2664 34.1165V30.0312H36.1255V33.974C36.0943 34.3397 36.1908 34.7049 36.3993 35.0094C36.6177 35.214 36.908 35.3281 37.2097 35.3281C37.5115 35.3281 37.8017 35.214 38.0202 35.0094C38.2168 34.6964 38.3061 34.3297 38.2748 33.9632V30.0312H40.1093Z" fill="white"></path>
		<path d="M47.3539 33.2493C47.3539 34.3699 47.0391 35.2341 46.4093 35.8419C45.7796 36.4497 44.8962 36.7528 43.759 36.751H41.5467V30.0273H43.915C45.0102 30.0273 45.8572 30.3035 46.4559 30.8557C47.0546 31.4079 47.3539 32.2058 47.3539 33.2493ZM45.4374 33.3138C45.4764 32.8291 45.3449 32.3459 45.065 31.9449C44.9244 31.7898 44.7492 31.6687 44.553 31.5913C44.3568 31.5138 44.145 31.4821 43.9342 31.4985H43.3866V35.2637H43.7973C44.027 35.2828 44.2581 35.2493 44.4724 35.1657C44.6867 35.0822 44.8783 34.9509 45.0321 34.7823C45.3005 34.4596 45.4346 33.9701 45.4346 33.3138H45.4374Z" fill="white"></path>
		<path d="M48.5778 36.751V30.0273H50.4368V36.751H48.5778Z" fill="white"></path>
		<path d="M54.9325 36.7495H53.0844V31.5158H51.4142V30.0312H56.6V31.5158H54.9325V36.7495Z" fill="white"></path>
	</g>
</svg>
