<svg width="90" height="90" viewBox="0 0 90 90" fill="none" xmlns="http://www.w3.org/2000/svg">
	<circle opacity="0.1" cx="45" cy="45" r="45" fill="#E2F3FF"></circle>
	<circle opacity="0.3" cx="45" cy="45" r="44.5" stroke="#A1B0BE"></circle>
	<g clip-path="url(#clip0)">
		<path d="M56.5721 28.6758H26.6895C25.7726 28.6758 25.0293 29.419 25.0293 30.3359V68.338C25.0293 69.2549 25.7726 69.9981 26.6895 69.9981H56.5721C57.489 69.9981 58.2322 69.2549 58.2322 68.338V30.3359C58.2322 29.419 57.489 28.6758 56.5721 28.6758Z" fill="#1483F8"></path>
		<path d="M58.1904 62.5845L61.2093 65.6035L65.6047 61.2081L62.4357 58.0391" fill="#1483F8"></path>
		<path d="M53.6744 64.3489C59.5698 64.3489 64.3489 59.5698 64.3489 53.6744C64.3489 47.7791 59.5698 43 53.6744 43C47.7791 43 43 47.7791 43 53.6744C43 59.5698 47.7791 64.3489 53.6744 64.3489Z" fill="#C7E2FF"></path>
		<path d="M54.1628 62.3256C58.671 62.3256 62.3256 58.671 62.3256 54.1628C62.3256 49.6546 58.671 46 54.1628 46C49.6546 46 46 49.6546 46 54.1628C46 58.671 49.6546 62.3256 54.1628 62.3256Z" fill="white"></path>
		<path d="M49 54.8462L53.125 59L60 52.0769L57.9375 50L53.125 54.8462L51.0625 52.7692L49 54.8462Z" fill="#1483F8"></path>
		<path d="M61.8372 64.9755L66.21 69.3482C66.4161 69.5544 66.6608 69.718 66.9301 69.8296C67.1995 69.9413 67.4882 69.9987 67.7797 69.9987C68.3686 69.9987 68.9333 69.7648 69.3497 69.3484C69.7661 68.9321 70 68.3673 70 67.7785C70 67.4869 69.9425 67.1982 69.8309 66.9289C69.7193 66.6595 69.5557 66.4148 69.3495 66.2087L64.9768 61.8359" fill="#1483F8"></path>
		<path d="M45.474 26.7017H37.7877C37.3828 26.7017 37.0546 26.3734 37.0546 25.9686V22.6248C37.0546 21.1774 38.232 20 39.6794 20H43.5822C45.0296 20 46.2071 21.1774 46.2071 22.6248V25.9686C46.2071 26.3734 45.8789 26.7017 45.474 26.7017ZM38.5208 25.2355H44.741V22.6248C44.741 21.9859 44.2212 21.4662 43.5823 21.4662H39.6795C39.0406 21.4662 38.5209 21.9859 38.5209 22.6248V25.2355H38.5208Z" fill="#3F6C9B"></path>
		<path d="M49.5339 30.1686H33.7275C33.4416 30.1686 33.2098 29.9368 33.2098 29.6509V27.1821C33.2098 25.552 34.5313 24.2305 36.1615 24.2305H47.1001C48.7303 24.2305 50.0517 25.552 50.0517 27.1821V29.6509C50.0517 29.9367 49.8198 30.1686 49.5339 30.1686Z" fill="#3F6C9B"></path>
		<path d="M53.9609 36.8998H47.7471C47.3423 36.8998 47.014 36.5716 47.014 36.1667C47.014 35.7618 47.3423 35.4336 47.7471 35.4336H53.9609C54.3658 35.4336 54.694 35.7618 54.694 36.1667C54.694 36.5716 54.3658 36.8998 53.9609 36.8998Z" fill="white"></path>
		<path d="M43.1947 36.8998H29.6317C29.2268 36.8998 28.8986 36.5716 28.8986 36.1667C28.8986 35.7618 29.2268 35.4336 29.6317 35.4336H43.1947C43.5995 35.4336 43.9278 35.7618 43.9278 36.1667C43.9278 36.5716 43.5995 36.8998 43.1947 36.8998Z" fill="white"></path>
		<path d="M43.1947 39.9193H29.6317C29.2268 39.9193 28.8986 39.5911 28.8986 39.1862C28.8986 38.7813 29.2268 38.4531 29.6317 38.4531H43.1947C43.5995 38.4531 43.9278 38.7813 43.9278 39.1862C43.9278 39.5911 43.5995 39.9193 43.1947 39.9193Z" fill="white"></path>
		<path d="M37.4783 43.0795H29.6317C29.2268 43.0795 28.8986 42.7513 28.8986 42.3464C28.8986 41.9415 29.2268 41.6133 29.6317 41.6133H37.4783C37.8832 41.6133 38.2114 41.9415 38.2114 42.3464C38.2114 42.7513 37.8832 43.0795 37.4783 43.0795Z" fill="white"></path>
		<path d="M53.9609 39.9193H47.7471C47.3423 39.9193 47.014 39.5911 47.014 39.1862C47.014 38.7813 47.3423 38.4531 47.7471 38.4531H53.9609C54.3658 38.4531 54.694 38.7813 54.694 39.1862C54.694 39.5911 54.3658 39.9193 53.9609 39.9193Z" fill="white"></path>
		<path d="M32.1974 56.6193C30.2313 56.6193 28.6318 55.0198 28.6318 53.0538C28.6318 51.0878 30.2313 49.4883 32.1974 49.4883C34.1635 49.4883 35.7629 51.0878 35.7629 53.0538C35.763 55.0198 34.1635 56.6193 32.1974 56.6193ZM32.1974 50.9544C31.0397 50.9544 30.098 51.8962 30.098 53.0537C30.098 54.2113 31.0398 55.1531 32.1974 55.1531C33.355 55.1531 34.2968 54.2113 34.2968 53.0537C34.2968 51.8962 33.3551 50.9544 32.1974 50.9544Z" fill="white"></path>
		<path d="M32.1974 66.5061C30.2313 66.5061 28.6318 64.9065 28.6318 62.9405C28.6318 60.9744 30.2313 59.375 32.1974 59.375C34.1635 59.375 35.7629 60.9745 35.7629 62.9405C35.763 64.9066 34.1635 66.5061 32.1974 66.5061ZM32.1974 60.8412C31.0397 60.8412 30.098 61.783 30.098 62.9406C30.098 64.0982 31.0398 65.0399 32.1974 65.0399C33.355 65.0399 34.2968 64.0981 34.2968 62.9406C34.2968 61.783 33.3551 60.8412 32.1974 60.8412Z" fill="white"></path>
		<path d="M41.6308 63.6732H38.2471C37.8422 63.6732 37.514 63.345 37.514 62.9401C37.514 62.5353 37.8422 62.207 38.2471 62.207H41.6307C42.0356 62.207 42.3638 62.5353 42.3638 62.9401C42.3638 63.345 42.0357 63.6732 41.6308 63.6732Z" fill="white"></path>
	</g>
</svg>
