<svg width="90" height="90" viewBox="0 0 90 90" fill="none" xmlns="http://www.w3.org/2000/svg">
	<circle opacity="0.1" cx="45" cy="45" r="45" fill="#E2F3FF"></circle>
	<circle opacity="0.3" cx="45" cy="45" r="44.5" stroke="#A1B0BE"></circle>
	<path d="M66.0461 30.4523L55.8315 20.4189C55.5579 20.1503 55.1891 20 54.8053 20H28.9813C25.9677 20 23.5156 22.4513 23.5156 25.4649V64.5343C23.5156 67.5479 25.9677 70 28.9813 70H61.0187C64.0323 70 66.4844 67.5479 66.4844 64.5343V31.4971C66.4844 31.1034 66.3261 30.7277 66.0461 30.4523Z" fill="#1483F8"></path>
	<path d="M56.6344 44.707C56.6344 45.5157 55.9779 46.1719 55.1696 46.1719H34.5203C33.7115 46.1719 33.0554 45.5157 33.0554 44.707C33.0554 43.8976 33.7115 43.2422 34.5203 43.2422H55.1696C55.9779 43.2422 56.6344 43.8976 56.6344 44.707Z" fill="white"></path>
	<path d="M52.822 50.5664C52.822 51.3751 52.1655 52.0312 51.3572 52.0312H34.5199C33.7115 52.0312 33.0554 51.3751 33.0554 50.5664C33.0554 49.7569 33.7115 49.1016 34.5199 49.1016H51.3572C52.1659 49.1016 52.822 49.7569 52.822 50.5664Z" fill="white"></path>
	<path d="M54.853 56.4258C54.853 57.2345 54.1969 57.8906 53.3881 57.8906H34.5199C33.7115 57.8906 33.0554 57.2345 33.0554 56.4258C33.0554 55.6163 33.7115 54.9609 34.5199 54.9609H53.3881C54.1969 54.9609 54.853 55.6163 54.853 56.4258Z" fill="white"></path>
	<path d="M66.4844 31.4971V32.962H56.7359C54.864 32.962 53.3405 31.4384 53.3405 29.5665V20H54.8053C55.1891 20 55.5583 20.1503 55.8315 20.4189L66.0461 30.4523C66.3261 30.7277 66.4844 31.1034 66.4844 31.4971Z" fill="#3F6C9B"></path>
</svg>
