<svg width="90" height="90" viewBox="0 0 90 90" fill="none" xmlns="http://www.w3.org/2000/svg">
	<circle opacity="0.1" cx="45" cy="45" r="45" fill="#E2F3FF"></circle>
	<circle opacity="0.3" cx="45" cy="45" r="44.5" stroke="#A1B0BE"></circle>
	<g clip-path="url(#clip0)">
		<path d="M45 73C44.8334 73 44.6667 72.9746 44.506 72.9239C38.1012 70.9013 32.6173 66.9688 28.6469 61.5515C24.6767 56.134 22.5781 49.7205 22.5781 43.004V26.2969C22.5781 25.3908 23.3127 24.6562 24.2188 24.6562C28.9574 24.6562 33.2657 22.0579 35.4719 17.8752C35.7557 17.337 36.3144 17 36.923 17H53.0769C53.6855 17 54.2442 17.3369 54.5281 17.8752C56.7343 22.0579 61.0426 24.6562 65.7714 24.6562C66.6775 24.6562 67.4219 25.3908 67.4219 26.2969V43.004C67.4219 49.7205 65.3233 56.134 61.3531 61.5514C57.3827 66.9687 51.8988 70.9012 45.494 72.9238C45.3333 72.9746 45.1666 73 45 73Z" fill="#1483F8"></path>
		<path d="M45 66.0199C44.7853 66.0199 44.5706 65.9778 44.3686 65.8936C35.1179 62.0361 29.1406 53.0515 29.1406 43.0041V31.8121C29.1406 31.1035 29.5956 30.4749 30.2688 30.2535C33.7511 29.1087 36.818 27.0033 39.1378 24.1649C39.4494 23.7837 39.9157 23.5625 40.4081 23.5625H49.5918C50.0842 23.5625 50.5507 23.7837 50.8622 24.1649C53.1819 27.0038 56.2488 29.1095 59.7312 30.2546C60.4044 30.476 60.8593 31.1046 60.8593 31.8132V43.0041C60.8593 53.0515 54.882 62.0361 45.6313 65.8935C45.4294 65.9777 45.2147 66.0199 45 66.0199Z" fill="white"></path>
		<path d="M42.448 51.6458C42.0281 51.6458 41.6082 51.4857 41.2879 51.1653L36.1837 46.0611C35.543 45.4204 35.543 44.3816 36.1837 43.7409C36.8243 43.1002 37.8632 43.1002 38.5039 43.7409L42.4481 47.6849L51.4963 38.6368C52.1369 37.9961 53.1758 37.9961 53.8165 38.6368C54.4572 39.2775 54.4572 40.3162 53.8165 40.957L43.6082 51.1653C43.2877 51.4857 42.8679 51.6458 42.448 51.6458Z" fill="#1483F8"></path>
	</g>
</svg>
