<svg width="90" height="90" viewBox="0 0 90 90" fill="none" xmlns="http://www.w3.org/2000/svg">
	<circle opacity="0.1" cx="45" cy="45" r="45" fill="#E2F3FF"></circle>
	<circle opacity="0.3" cx="45" cy="45" r="44.5" stroke="#A1B0BE"></circle>
	<path d="M26.585 51.0946C26.3983 51.0946 26.2191 51.0204 26.0871 50.8884C25.955 50.7563 25.8808 50.5772 25.8808 50.3904V39.1183C25.8808 38.9315 25.955 38.7524 26.0871 38.6203C26.2191 38.4883 26.3983 38.4141 26.585 38.4141C26.7718 38.4141 26.9509 38.4883 27.083 38.6203C27.2151 38.7524 27.2893 38.9315 27.2893 39.1183V50.3904C27.2893 50.5772 27.2151 50.7563 27.083 50.8884C26.9509 51.0204 26.7718 51.0946 26.585 51.0946Z" fill="white"></path>
	<path d="M44.9863 40.5829C44.7996 40.5829 44.6204 40.5087 44.4884 40.3766C44.3563 40.2445 44.2821 40.0654 44.2821 39.8786V31.2081C44.2821 31.0214 44.3563 30.8422 44.4884 30.7102C44.6204 30.5781 44.7996 30.5039 44.9863 30.5039C45.1731 30.5039 45.3522 30.5781 45.4843 30.7102C45.6164 30.8422 45.6906 31.0214 45.6906 31.2081V39.8802C45.6901 40.0667 45.6158 40.2455 45.4837 40.3772C45.3517 40.5089 45.1728 40.5829 44.9863 40.5829Z" fill="white"></path>
	<path d="M44.9863 58.8049C44.7996 58.8049 44.6204 58.7307 44.4884 58.5987C44.3563 58.4666 44.2821 58.2875 44.2821 58.1007V50.5167C44.2821 50.33 44.3563 50.1508 44.4884 50.0188C44.6204 49.8867 44.7996 49.8125 44.9863 49.8125C45.1731 49.8125 45.3522 49.8867 45.4843 50.0188C45.6164 50.1508 45.6906 50.33 45.6906 50.5167V58.1007C45.6906 58.2875 45.6164 58.4666 45.4843 58.5987C45.3522 58.7307 45.1731 58.8049 44.9863 58.8049Z" fill="white"></path>
	<path d="M63.3878 50.7918C63.201 50.7918 63.0219 50.7176 62.8898 50.5855C62.7577 50.4535 62.6835 50.2743 62.6835 50.0876V39.4191C62.6835 39.2323 62.7577 39.0532 62.8898 38.9211C63.0219 38.789 63.201 38.7148 63.3878 38.7148C63.5745 38.7148 63.7537 38.789 63.8857 38.9211C64.0178 39.0532 64.092 39.2323 64.092 39.4191V50.0876C64.092 50.2743 64.0178 50.4535 63.8857 50.5855C63.7537 50.7176 63.5745 50.7918 63.3878 50.7918Z" fill="white"></path>
	<path d="M58.0911 34.9868C57.9591 34.9868 57.8298 34.9496 57.7181 34.8793L49.5454 29.7622C49.467 29.7131 49.399 29.6491 49.3453 29.5738C49.2917 29.4984 49.2534 29.4133 49.2327 29.3231C49.1908 29.1411 49.2229 28.9499 49.322 28.7916C49.4211 28.6332 49.579 28.5208 49.7611 28.4789C49.9431 28.437 50.1343 28.4691 50.2926 28.5682L58.4674 33.6858C58.5969 33.767 58.6966 33.8881 58.7512 34.0309C58.8059 34.1738 58.8125 34.3305 58.7702 34.4774C58.7279 34.6244 58.6389 34.7536 58.5167 34.8455C58.3944 34.9373 58.2456 34.987 58.0927 34.9868H58.0911Z" fill="white"></path>
	<path d="M50.1828 64.6588C50.0315 64.659 49.8842 64.6105 49.7626 64.5205C49.641 64.4304 49.5517 64.3036 49.5078 64.1588C49.4639 64.014 49.4678 63.859 49.519 63.7166C49.5701 63.5742 49.6657 63.452 49.7917 63.3682L58.2332 57.7469C58.3887 57.6434 58.5789 57.6059 58.7621 57.6427C58.9452 57.6795 59.1062 57.7875 59.2097 57.943C59.3131 58.0985 59.3506 58.2888 59.3138 58.4719C59.277 58.655 59.169 58.816 59.0135 58.9195L50.5724 64.5409C50.457 64.6178 50.3215 64.6589 50.1828 64.6588Z" fill="white"></path>
	<path d="M31.6628 35.127C31.5098 35.1271 31.361 35.0775 31.2388 34.9856C31.1166 34.8937 31.0276 34.7646 30.9853 34.6176C30.9429 34.4707 30.9496 34.3139 31.0042 34.1711C31.0589 34.0283 31.1585 33.9071 31.2881 33.8259L40.0966 28.3104C40.175 28.2613 40.2623 28.2282 40.3535 28.2129C40.4447 28.1975 40.5381 28.2003 40.6282 28.2211C40.7183 28.2418 40.8035 28.2801 40.8788 28.3337C40.9542 28.3874 41.0182 28.4554 41.0673 28.5338C41.1163 28.6122 41.1495 28.6994 41.1648 28.7907C41.1801 28.8819 41.1774 28.9752 41.1566 29.0653C41.1359 29.1555 41.0976 29.2406 41.0439 29.316C40.9903 29.3913 40.9223 29.4553 40.8439 29.5044L32.0354 35.0195C31.9238 35.0897 31.7946 35.1269 31.6628 35.127Z" fill="white"></path>
	<path d="M39.7899 64.6588C39.6513 64.6589 39.5157 64.6178 39.4004 64.5409L30.9593 58.9195C30.8823 58.8683 30.8161 58.8024 30.7646 58.7256C30.7131 58.6488 30.6772 58.5626 30.6589 58.4719C30.6407 58.3812 30.6405 58.2878 30.6584 58.1971C30.6763 58.1064 30.7118 58.02 30.7631 57.943C30.8143 57.866 30.8802 57.7999 30.957 57.7483C31.0338 57.6968 31.12 57.6609 31.2107 57.6427C31.3014 57.6245 31.3947 57.6243 31.4855 57.6422C31.5762 57.66 31.6626 57.6956 31.7395 57.7468L40.1811 63.3682C40.307 63.452 40.4027 63.5742 40.4538 63.7165C40.5049 63.8589 40.5088 64.014 40.4649 64.1588C40.4211 64.3036 40.3317 64.4304 40.2101 64.5204C40.0886 64.6105 39.9412 64.659 39.7899 64.6588Z" fill="white"></path>
	<path d="M49.92 43.3196C49.7681 43.3198 49.6202 43.2709 49.4983 43.1802C49.3765 43.0894 49.2872 42.9617 49.2439 42.8161C49.2006 42.6705 49.2055 42.5148 49.258 42.3722C49.3104 42.2296 49.4076 42.1078 49.5349 42.025L57.6018 36.7742C57.7583 36.6723 57.949 36.6368 58.1318 36.6754C58.3146 36.714 58.4745 36.8237 58.5764 36.9803C58.6784 37.1368 58.7139 37.3275 58.6753 37.5103C58.6366 37.693 58.527 37.853 58.3704 37.9549L50.3035 43.2057C50.1894 43.28 50.0562 43.3196 49.92 43.3196Z" fill="white"></path>
	<path d="M57.6654 53.3617C57.5204 53.3618 57.379 53.3169 57.2606 53.2333L50.4662 48.4494C50.3147 48.3413 50.2122 48.1777 50.181 47.9943C50.1497 47.8109 50.1924 47.6226 50.2995 47.4705C50.4067 47.3184 50.5697 47.2149 50.7529 47.1826C50.9362 47.1503 51.1247 47.1918 51.2774 47.2981L58.0719 52.0824C58.1943 52.1686 58.286 52.2915 58.3338 52.4334C58.3817 52.5753 58.383 52.7287 58.3377 52.8714C58.2924 53.0141 58.2028 53.1386 58.0819 53.2269C57.961 53.3152 57.8151 53.3627 57.6654 53.3625V53.3617Z" fill="white"></path>
	<path d="M40.2781 43.4583C40.1419 43.4583 40.0087 43.4187 39.8946 43.3444L30.7359 37.3846C30.6584 37.3341 30.5916 37.2689 30.5393 37.1926C30.487 37.1163 30.4502 37.0305 30.4311 36.94C30.4119 36.8494 30.4108 36.7561 30.4278 36.6651C30.4447 36.5742 30.4794 36.4875 30.5299 36.41C30.5804 36.3324 30.6456 36.2656 30.7219 36.2133C30.7982 36.161 30.8841 36.1242 30.9746 36.1051C31.0651 36.0859 31.1585 36.0848 31.2494 36.1018C31.3403 36.1187 31.427 36.1534 31.5046 36.2039L40.6632 42.1637C40.7905 42.2466 40.8877 42.3684 40.9402 42.5109C40.9926 42.6535 40.9975 42.8092 40.9542 42.9549C40.9109 43.1005 40.8216 43.2282 40.6998 43.3189C40.5779 43.4097 40.43 43.4585 40.2781 43.4583Z" fill="white"></path>
	<path d="M31.8644 53.6783C31.7147 53.6786 31.5688 53.6311 31.4479 53.5428C31.327 53.4544 31.2374 53.3299 31.1921 53.1872C31.1468 53.0445 31.1482 52.8911 31.196 52.7492C31.2438 52.6074 31.3356 52.4844 31.458 52.3982L39.3856 46.8163C39.5383 46.7086 39.7275 46.666 39.9116 46.6978C40.0957 46.7296 40.2596 46.8332 40.3673 46.9859C40.475 47.1386 40.5176 47.3278 40.4858 47.5119C40.454 47.696 40.3504 47.8599 40.1977 47.9676L32.2701 53.5496C32.1515 53.6335 32.0097 53.6785 31.8644 53.6783Z" fill="white"></path>
	<path d="M44.9864 51.0861L39.101 47.8736V41.9883L44.9864 45.2008V51.0861Z" fill="#1483F8"></path>
	<path d="M44.9863 51.0861L50.8717 47.8736V41.9883L44.9863 45.2008V51.0861Z" fill="#1483F8"></path>
	<path d="M39.101 41.9839L44.9864 38.6133L50.8717 41.9839L44.9864 45.1964L39.101 41.9839Z" fill="#1483F8"></path>
	<path d="M26.5854 40.3049L20.7 37.0924V31.207L26.5854 34.4195V40.3049Z" fill="#1483F8"></path>
	<path d="M26.5854 40.3049L32.4707 37.0924V31.207L26.5854 34.4195V40.3049Z" fill="#1483F8"></path>
	<path d="M20.7 31.2105L26.5854 27.8398L32.4707 31.2105L26.5854 34.423L20.7 31.2105Z" fill="#1483F8"></path>
	<path d="M26.5854 61.6643L20.7 58.4518V52.5664L26.5854 55.7789V61.6643Z" fill="#1483F8"></path>
	<path d="M26.5854 61.6643L32.4707 58.4518V52.5664L26.5854 55.7789V61.6643Z" fill="#1483F8"></path>
	<path d="M20.7 52.5699L26.5854 49.1992L32.4707 52.5699L26.5854 55.7824L20.7 52.5699Z" fill="#1483F8"></path>
	<path d="M63.3873 40.3049L57.502 37.0924V31.207L63.3873 34.4195V40.3049Z" fill="#1483F8"></path>
	<path d="M63.3873 40.3049L69.2726 37.0924V31.207L63.3873 34.4195V40.3049Z" fill="#1483F8"></path>
	<path d="M57.5019 31.2105L63.3873 27.8398L69.2726 31.2105L63.3873 34.423L57.5019 31.2105Z" fill="#1483F8"></path>
	<path d="M63.3873 61.6643L57.5019 58.4518V52.5664L63.3873 55.7789V61.6643Z" fill="#1483F8"></path>
	<path d="M63.3873 61.6643L69.2726 58.4518V52.5664L63.3873 55.7789V61.6643Z" fill="#1483F8"></path>
	<path d="M57.502 52.5699L63.3873 49.1992L69.2727 52.5699L63.3873 55.7824L57.502 52.5699Z" fill="#1483F8"></path>
	<path d="M44.9864 32.4655L39.101 29.2525V23.3672L44.9864 26.5801V32.4655Z" fill="#1483F8"></path>
	<path d="M44.9863 32.4655L50.8717 29.2525V23.3672L44.9863 26.5801V32.4655Z" fill="#1483F8"></path>
	<path d="M39.101 23.3707L44.9864 20L50.8717 23.3707L44.9864 26.5836L39.101 23.3707Z" fill="#1483F8"></path>
	<path d="M44.9864 69.9967L39.101 66.7838V60.8984L44.9864 64.1113V69.9967Z" fill="#1483F8"></path>
	<path d="M44.9863 69.9967L50.8717 66.7838V60.8984L44.9863 64.1113V69.9967Z" fill="#1483F8"></path>
	<path d="M39.101 60.9019L44.9864 57.5312L50.8717 60.9019L44.9864 64.1148L39.101 60.9019Z" fill="#1483F8"></path>
</svg>
