<svg width="90" height="90" viewBox="0 0 90 90" fill="none" xmlns="http://www.w3.org/2000/svg">
	<circle opacity="0.1" cx="45" cy="45" r="45" fill="#E2F3FF"></circle>
	<circle opacity="0.3" cx="45" cy="45" r="44.5" stroke="#A1B0BE"></circle>
	<path d="M40.3125 59.0625C50.6678 59.0625 59.0625 50.6678 59.0625 40.3125C59.0625 29.9572 50.6678 21.5625 40.3125 21.5625C29.9572 21.5625 21.5625 29.9572 21.5625 40.3125C21.5625 50.6678 29.9572 59.0625 40.3125 59.0625Z" fill="#64B5F3"></path>
	<path d="M40.3125 56.6703C49.3471 56.6703 56.6711 49.3463 56.6711 40.3117C56.6711 31.2771 49.3471 23.9531 40.3125 23.9531C31.2779 23.9531 23.9539 31.2771 23.9539 40.3117C23.9539 49.3463 31.2779 56.6703 40.3125 56.6703Z" fill="#1483F8"></path>
	<path d="M40.3125 55.9375C48.9419 55.9375 55.9375 48.9419 55.9375 40.3125C55.9375 31.6831 48.9419 24.6875 40.3125 24.6875C31.6831 24.6875 24.6875 31.6831 24.6875 40.3125C24.6875 48.9419 31.6831 55.9375 40.3125 55.9375Z" fill="#1483F8"></path>
	<path d="M29.4227 49.64C29.4217 51.9171 29.8052 54.178 30.557 56.3275C34.1538 58.5196 38.3839 59.4367 42.5656 58.9312C46.7473 58.4256 50.6369 56.5267 53.6076 53.5406C56.5783 50.5544 58.457 46.655 58.9409 42.4708C59.4248 38.2866 58.4857 34.0613 56.275 30.4759C53.2233 29.4267 49.9651 29.1215 46.7717 29.5858C43.5782 30.05 40.5418 31.2702 37.9151 33.1448C35.2884 35.0194 33.1474 37.4943 31.6702 40.3634C30.1931 43.2325 29.4225 46.4129 29.4227 49.64Z" fill="#1D2F40"></path>
	<path d="M29.375 39.5312H34.8438V41.0938H29.375V39.5312Z" fill="#7FCDF2"></path>
	<path d="M37.1875 37.9688H33.2812C33.074 37.9688 32.8753 37.8864 32.7288 37.7399C32.5823 37.5934 32.5 37.3947 32.5 37.1875V34.0625H34.0625V36.4062H37.1875V37.9688Z" fill="#7FCDF2"></path>
	<path d="M39.5312 30.1562H41.0938V35.625H39.5312V30.1562Z" fill="#7FCDF2"></path>
	<path d="M29.375 41.8281C30.2379 41.8281 30.9375 41.1286 30.9375 40.2656C30.9375 39.4027 30.2379 38.7031 29.375 38.7031C28.5121 38.7031 27.8125 39.4027 27.8125 40.2656C27.8125 41.1286 28.5121 41.8281 29.375 41.8281Z" fill="#F9D161"></path>
	<path d="M40.3125 30.8906C41.1754 30.8906 41.875 30.1911 41.875 29.3281C41.875 28.4652 41.1754 27.7656 40.3125 27.7656C39.4496 27.7656 38.75 28.4652 38.75 29.3281C38.75 30.1911 39.4496 30.8906 40.3125 30.8906Z" fill="#F9D161"></path>
	<path d="M33.2812 34.7969C34.1442 34.7969 34.8438 34.0973 34.8438 33.2344C34.8438 32.3714 34.1442 31.6719 33.2812 31.6719C32.4183 31.6719 31.7188 32.3714 31.7188 33.2344C31.7188 34.0973 32.4183 34.7969 33.2812 34.7969Z" fill="#F9D161"></path>
	<path d="M34.8438 39.5312H32.1266C31.8339 40.0391 31.5625 40.5599 31.3125 41.0938H34.8438V39.5312Z" fill="#4AAEE3"></path>
	<path d="M37.1875 37.9688V36.4062H34.3477C33.9227 36.8979 33.5219 37.4096 33.1453 37.9414C33.1896 37.9549 33.2352 37.964 33.2812 37.9688H37.1875Z" fill="#4AAEE3"></path>
	<path d="M41.0938 35.6273V31.2891C40.5594 31.5401 40.0385 31.8133 39.5312 32.1086V35.6273H41.0938Z" fill="#4AAEE3"></path>
	<path d="M49.6875 68.4375C60.0428 68.4375 68.4375 60.0428 68.4375 49.6875C68.4375 39.3322 60.0428 30.9375 49.6875 30.9375C39.3322 30.9375 30.9375 39.3322 30.9375 49.6875C30.9375 60.0428 39.3322 68.4375 49.6875 68.4375Z" fill="#64B5F3"></path>
	<path d="M49.6875 66.0453C58.7221 66.0453 66.0461 58.7213 66.0461 49.6867C66.0461 40.6521 58.7221 33.3281 49.6875 33.3281C40.6529 33.3281 33.3289 40.6521 33.3289 49.6867C33.3289 58.7213 40.6529 66.0453 49.6875 66.0453Z" fill="#1483F8"></path>
	<path d="M49.6875 65.3125C58.3169 65.3125 65.3125 58.3169 65.3125 49.6875C65.3125 41.0581 58.3169 34.0625 49.6875 34.0625C41.0581 34.0625 34.0625 41.0581 34.0625 49.6875C34.0625 58.3169 41.0581 65.3125 49.6875 65.3125Z" fill="#1483F8"></path>
	<path d="M49.6875 37.6484L39.5312 43.8984V55.6172L49.6875 61.8672L59.8438 55.6172V43.8984L49.6875 37.6484ZM56.7188 54.0547L49.6875 57.9609L42.6562 54.0547V45.4609L49.6875 41.5547L56.7188 45.4609V54.0547Z" fill="white"></path>
</svg>
