<svg width="80" height="80" viewBox="0 0 80 80" fill="none" xmlns="http://www.w3.org/2000/svg">
<circle opacity="0.12" cx="40" cy="40" r="40" fill="#1483F8"/>
<path fill-rule="evenodd" clip-rule="evenodd" d="M26.168 36.25C26.168 28 31.668 22.5 39.918 22.5C47.5053 22.516 53.652 28.6627 53.668 36.25C53.668 40.5267 49.678 46.399 41.698 53.867C40.6794 54.8204 39.1082 54.8599 38.043 53.959C30.1263 47.2643 26.168 41.3613 26.168 36.25ZM39.918 39.0019C42.4491 39.0019 44.501 36.9501 44.501 34.4189C44.501 31.8878 42.4491 29.8359 39.918 29.8359C37.3868 29.8359 35.335 31.8878 35.335 34.4189C35.335 36.9501 37.3868 39.0019 39.918 39.0019H39.918Z" fill="#1483F8"/>
</svg>
